<?xml version="1.0" encoding="utf-8"?>
<!-- Generator: Adobe Illustrator 27.5.0, SVG Export Plug-In . SVG Version: 6.00 Build 0)  -->
<svg version="1.1" id="Capa_1" xmlns="http://www.w3.org/2000/svg" xmlns:xlink="http://www.w3.org/1999/xlink" x="0px" y="0px"
	 viewBox="0 0 16 16" style="enable-background:new 0 0 16 16;" xml:space="preserve">
<g>
	<path d="M9.4,0c0.4,0,0.9,0,1.3,0c0.3,0,0.6,0.1,0.8,0.1l0,2.6c-0.1,0-0.1,0-0.2,0c-0.3,0-0.6,0-0.8,0c-0.2,0-0.4,0-0.6,0
		C9.1,2.7,8.6,3,8.6,3.8c0,0.6,0,2,0,2c0,0,0.7,0,1.4,0c0.3,0,0.7,0,0.9,0c0.2,0,0.4,0,0.6,0c-0.1,1-0.3,1.9-0.4,2.9H8.5L8.5,16h-3
		l0.1-7.2H3.1l0-2.9h2.5l0-0.2c0-0.6,0-1.2,0-1.7c0-0.4,0-0.7,0.1-1.1C5.8,1.9,6.2,1.2,7,0.7C7.6,0.2,8.4,0,9.1,0C9.2,0,9.3,0,9.4,0
		z"/>
</g>
</svg>
