<?xml version="1.0" encoding="UTF-8"?>
<svg id="uuid-1b99512b-f52e-4c22-9ff1-4d48bfeae9ed" data-name="Capa 1" xmlns="http://www.w3.org/2000/svg" width="17.6cm" height="5.4cm" viewBox="0 0 498.2 154.2">
  <g>
    <path d="m22.6,95.7c18,.9,36.1.5,54-1.2,5.6-.6,11.3-1.3,16.9-2s4.1-2.3,5-3.9c1.1-1.8,1.5-4.5.8-6.5-.7-2-1.9-4-3.9-5l-2-.8c-1.5-.4-3-.4-4.5,0-.5,0-1,.1-1.5.2l2.2-.3c-17.3,2.3-34.7,3.4-52.2,3.2-5,0-10-.2-15-.5s-8.6,4-8.4,8.4c.2,4.7,3.7,8.2,8.4,8.4h0Z" style="fill: #5f6f94;"/>
    <path d="m33,133.5c17.4-1.3,34.7-2.6,52.1-3.9s9.9-.7,14.9-1.1,4.3-.8,5.9-2.5c1.5-1.5,2.6-3.8,2.5-5.9-.2-4.3-3.7-8.8-8.4-8.4-17.4,1.3-34.7,2.6-52.1,3.9l-14.9,1.1c-2.3.2-4.3.8-5.9,2.5-1.5,1.5-2.6,3.8-2.5,5.9.2,4.3,3.7,8.8,8.4,8.4h0Z" style="fill: #5f6f94;"/>
  </g>
  <g>
    <path d="m475.7,78.9c-17.4.9-34.9.5-52.3-1.1-5-.5-9.9-1-14.9-1.7l2.2.3c-.5,0-1-.1-1.5-.2-2.3-.3-4.3-.4-6.5.8-1.7,1-3.4,3-3.9,5-.5,2.2-.4,4.6.8,6.5,1.1,1.7,2.9,3.6,5,3.9,18.4,2.6,37,3.9,55.6,3.7s10.2-.2,15.2-.5,8.6-3.7,8.4-8.4c-.2-4.4-3.7-8.6-8.4-8.4h0Z" style="fill: #5f6f94;"/>
    <path d="m465.3,116.7c-17.4-1.3-34.7-2.6-52.1-3.9s-9.9-.7-14.9-1.1-4.5,1-5.9,2.5c-1.5,1.5-2.6,3.8-2.5,5.9.2,4.8,3.7,8.1,8.4,8.4,17.4,1.3,34.7,2.6,52.1,3.9l14.9,1.1c2.1.2,4.5-1,5.9-2.5,1.5-1.5,2.6-3.8,2.5-5.9-.2-4.8-3.7-8.1-8.4-8.4h0Z" style="fill: #5f6f94;"/>
  </g>
  <path d="m314.5,66.6c11-14.6,22.1-29.1,33.2-43.6l-1.3,1.7c.3-.4.6-.7,1-1.1l-1.7,1.3c.2-.1.4-.3.6-.4l-2,.8h.3c-.7,0-1.5.1-2.2.2.2,0,.5,0,.7,0l-2.2-.3h.3c-.7-.2-1.3-.5-2-.7.2,0,.4.2.6.4l-1.7-1.3c2.2,2,4.1,4.5,6,6.8,2,2.4,4,4.8,5.9,7.3l-1.3-1.7c6.4,8.3,12.3,17,17.5,26.1,2.2,3.8,7.7,5.5,11.5,3s5.4-7.4,3-11.5c-7.4-12.9-16.1-25-25.7-36.3s-6.6-8.5-12.2-8.5-9.4,5.6-12.8,10c-4.7,6.1-9.4,12.3-14.1,18.4-5.3,6.9-10.6,13.9-15.8,20.9-1.2,1.6-1.4,4.6-.8,6.5.5,1.9,2,4.1,3.9,5s4.3,1.5,6.5.8,3.6-2,5-3.9h0Z" style="fill: #5f6f94;"/>
  <path d="m209.7,58.1c-9.3-12.4-18.7-24.7-28.1-36.9-1.1-1.4-2.2-2.9-3.3-4.3-1.8-2.4-3.4-5.1-6.1-6.6s-7.5-1.9-10.7.2c-1.9,1.3-3.4,3.1-4.9,4.8-5.1,5.8-9.9,11.9-14.4,18.1-4.7,6.5-9.1,13.3-13.2,20.3-2.2,3.8-1,9.4,3,11.5s9.1,1,11.5-3c5.3-9.1,11.1-17.8,17.5-26.1l-1.3,1.7c1.9-2.5,3.9-4.9,5.9-7.3s3.8-4.8,6-6.8l-1.7,1.3c.2-.1.4-.3.6-.4l-2,.8h.3c-.7,0-1.5,0-2.2.2.2,0,.5,0,.7,0l-2.2-.3h.3c-.7-.2-1.3-.5-2-.7.2,0,.4.2.6.4l-1.7-1.3c.4.3.7.7,1,1.1l-1.3-1.7c11.2,14.5,22.2,29,33.2,43.6,1.4,1.8,2.7,3.2,5,3.9s4.7.3,6.5-.8,3.4-2.9,3.9-5,.5-4.7-.8-6.5h0Z" style="fill: #5f6f94;"/>
  <g>
    <path d="m238,98.6c10.5,0,21,0,31.5,0s6.2-2.8,6-6c-.1-3.3-2.7-6-6-6-10.5,0-21,0-31.5,0s-6.2,2.8-6,6c.1,3.3,2.7,6,6,6h0Z" style="fill: #5f6f94;"/>
    <path d="m250.4,95.6c0,8.2,0,16.5,0,24.7s2.8,6.2,6,6,6-2.7,6-6c0-8.2,0-16.5,0-24.7s-2.8-6.2-6-6-6,2.7-6,6h0Z" style="fill: #5f6f94;"/>
    <path d="m232.4,132.3c14.2.2,28.4.4,42.6.6s6.2-2.8,6-6-2.7-6-6-6c-14.2-.2-28.4-.4-42.6-.6s-6.2,2.8-6,6,2.7,6,6,6h0Z" style="fill: #5f6f94;"/>
  </g>
</svg>