<?xml version="1.0" encoding="UTF-8"?>
<svg id="Capa_1" data-name="Capa 1" xmlns="http://www.w3.org/2000/svg" xmlns:xlink="http://www.w3.org/1999/xlink" viewBox="0 0 498.24 498.24">
  <defs>
    <style>
      .cls-1 {
        fill: #fff;
      }

      .cls-2, .cls-3 {
        fill: none;
      }

      .cls-4 {
        fill: #5f6f94;
      }

      .cls-3 {
        clip-path: url(#clippath);
      }
    </style>
    <clipPath id="clippath">
      <rect class="cls-2" x="520.6" y="-104.89" width="1404.85" height="604.46"/>
    </clipPath>
  </defs>
  <g>
    <path class="cls-4" d="m170.27,247.09c-1.78-.42-3.51-.98-5.2-1.69l2.31.98c-2.58-1.11-4.99-2.54-7.22-4.24l1.96,1.52c-2.22-1.73-4.2-3.7-5.95-5.91l1.52,1.96c-1.72-2.22-3.15-4.63-4.26-7.21l.98,2.31c-1.08-2.59-1.8-5.28-2.18-8.06l.35,2.58c-.35-2.83-.34-5.66,0-8.49l-.35,2.58c.4-2.95,1.16-5.82,2.29-8.58l-.98,2.31c1.11-2.62,2.52-5.08,4.26-7.33l-1.52,1.96c1.44-1.82,3.06-3.48,4.9-4.91l-1.96,1.52c1.32-.99,2.72-1.83,4.23-2.5l-2.31.98c1.62-.67,3.28-1.12,5.01-1.38l-2.58.35c2.63-.35,5.26-.25,7.88.08l-2.58-.35c3.74.52,7.4,1.49,11.04,2.51,3.01.84,5.99,1.76,8.87,2.96l-2.31-.98c2.42,1.03,4.74,2.26,6.83,3.87l-1.96-1.52c1.19.94,2.26,1.99,3.21,3.17l-1.52-1.96c.92,1.19,1.67,2.47,2.26,3.86l-.98-2.31c.56,1.41.93,2.85,1.16,4.35l-.35-2.58c.28,2.22.22,4.43-.06,6.65l.35-2.58c-.59,4.1-1.9,8.02-3.49,11.84l.98-2.31c-2.48,5.84-5.67,11.32-9.53,16.36l1.52-1.96c-1.93,2.49-3.95,5.08-6.44,7.04l1.96-1.52c-.63.47-1.28.87-1.99,1.2l2.31-.98c-.67.28-1.34.47-2.06.59l2.58-.35c-1.23.16-2.43.11-3.66-.03l2.58.35c-7.27-.99-14.74-2.66-21.52-5.48l2.31.98c-3.15-1.34-6.13-2.98-8.84-5.06l1.96,1.52c-2.1-1.64-3.99-3.5-5.63-5.6l1.52,1.96c-1.37-1.79-2.51-3.71-3.4-5.78l.98,2.31c-.71-1.74-1.2-3.52-1.47-5.38l.35,2.58c-.24-1.88-.23-3.74.01-5.62l-.35,2.58c.31-2.11.89-4.15,1.71-6.12l-.98,2.31c.97-2.22,2.21-4.29,3.68-6.21l-1.52,1.96c1.67-2.13,3.59-4.02,5.73-5.68l-1.96,1.52c2.4-1.81,5.02-3.25,7.79-4.43l-2.31.98c4.23-1.75,8.67-2.8,13.2-3.41l-2.58.35c5.06-.65,10.51-1.13,15.59-.48l-2.58-.35c1.03.16,2,.41,2.97.8l-2.31-.98c.78.35,1.49.78,2.18,1.29l-1.96-1.52c.96.76,1.78,1.64,2.53,2.61l-1.52-1.96c1.68,2.25,2.89,4.8,3.99,7.38l-.98-2.31c1.12,2.69,2.02,5.45,2.46,8.34l-.35-2.58c.23,1.72.27,3.44.05,5.16l.35-2.58c-.18,1.17-.49,2.29-.94,3.39l.98-2.31c-.43.96-.95,1.85-1.57,2.69l1.52-1.96c-.86,1.1-1.85,2.06-2.95,2.93l1.96-1.52c-2.17,1.67-4.59,2.94-7.03,4.17-2.83,1.43-5.69,2.8-8.61,4.04l2.31-.98c-4.44,1.85-9.02,3.32-13.8,4l2.58-.35c-2.61.34-5.24.4-7.85.05l2.58.35c-1.67-.25-3.28-.67-4.85-1.31l2.31.98c-1.18-.52-2.28-1.14-3.31-1.91l1.96,1.52c-.96-.75-1.8-1.59-2.55-2.54l1.52,1.96c-.78-1.04-1.41-2.15-1.93-3.35l.98,2.31c-.59-1.44-.97-2.93-1.19-4.47l.35,2.58c-.2-1.68-.2-3.35.02-5.03l-.35,2.58c.25-1.71.71-3.34,1.37-4.93l-.98,2.31c.82-1.88,1.86-3.63,3.1-5.26l-1.52,1.96c1.6-2.04,3.44-3.83,5.48-5.43l-1.96,1.52c2.12-1.63,4.39-3.1,6.87-4.14l-2.31.98c1.18-.47,2.37-.81,3.63-.99l-2.58.35c.82-.08,1.6-.07,2.42.03l-2.58-.35c.54.1,1.05.24,1.56.42l-2.31-.98c.78.33,1.46.75,2.14,1.27l-1.96-1.52c2.27,1.86,4.3,4.13,6.1,6.44l-1.52-1.96c1.28,1.69,2.39,3.47,3.24,5.41l-.98-2.31c.55,1.36.95,2.73,1.17,4.18l-.35-2.58c.16,1.3.18,2.58.04,3.88l.35-2.58c-.16,1.15-.45,2.24-.89,3.32l.98-2.31c-.37.82-.82,1.58-1.36,2.3l1.52-1.96c-.48.59-1,1.1-1.58,1.57l1.96-1.52c-.69.51-1.41.94-2.19,1.29l2.31-.98c-.9.37-1.81.63-2.77.78l2.58-.35c-1.07.14-2.13.15-3.2.02l2.58.35c-.96-.14-1.87-.39-2.76-.76l2.31.98c-.69-.31-1.32-.67-1.92-1.11l1.96,1.52c-.61-.47-1.13-.99-1.62-1.58l1.52,1.96c-.53-.69-.96-1.43-1.32-2.22l.98,2.31c-.37-.91-.62-1.85-.77-2.82l.35,2.58c-.12-.98-.12-1.96,0-2.94l-.35,2.58c.14-.98.38-1.91.74-2.83l-.98,2.31c.35-.8.77-1.54,1.29-2.24l-1.52,1.96c.43-.53.89-1,1.41-1.45l-1.96,1.52c.33-.24.63-.43,1-.6l-2.31.98.36-.11-2.58.35c.26-.06.52-.06.77-.02l-2.58-.35.38.1-2.31-.98c.39.17.7.35,1.05.59l-1.96-1.52c1.94,1.55,3.63,3.44,5.16,5.37l-1.52-1.96c2.04,2.64,3.72,5.5,5.03,8.57l-.98-2.31c.31.74.6,1.44.72,2.23l-.35-2.58c.05.48.05.94-.01,1.42l.35-2.58c-.05.27-.11.5-.2.76l.98-2.31c-.06.15-.13.29-.22.42l1.52-1.96c-.08.12-.18.23-.29.32l1.96-1.52c-.11.09-.23.16-.36.2l2.31-.98-.21.05,2.58-.35c-.16.02-.32.01-.48-.02-2.29-.27-5.29,1.28-6.85,2.84-1.68,1.68-2.95,4.44-2.84,6.85s.94,5.11,2.84,6.85l1.96,1.52c1.51.88,3.14,1.32,4.89,1.32,1.48.18,3.08-.3,4.42-.87s2.51-1.28,3.64-2.35c2.3-2.19,3.08-5.17,3.39-8.2.37-3.64-1.28-7.07-2.8-10.25-2.42-5.04-6-9.8-10.15-13.54-1.92-1.73-3.94-3.19-6.49-3.84-3.81-.97-7.55.11-10.58,2.46s-5.13,5.62-6.4,9.33c-1.16,3.35-1.05,6.88-.5,10.31.41,2.61,1.48,5.25,3.06,7.36,1.31,1.76,2.42,2.98,4.12,4.3s3.41,2.17,5.51,2.97c2.45.93,5.32,1.28,7.92,1.01,3.4-.36,6.77-1.11,9.65-3.06s5.45-4.49,6.94-7.72c1.58-3.43,2.54-7.11,2.29-10.92-.26-4.03-1.24-7.37-2.95-11.01-1.37-2.9-3.42-5.49-5.48-7.93s-4.39-4.69-7-6.63c-6.7-5-15.66-3.23-22.37.69-5.3,3.09-9.69,7.17-13.32,12.09s-5.49,10.83-5.62,16.78c-.15,6.59,2.17,12.78,6.33,17.82,1.84,2.22,4.31,4.13,6.91,5.38,3.6,1.73,6.88,2.53,10.82,3,2.36.28,4.72.23,7.07-.05,3.39-.4,6.71-.96,9.98-1.94,5.84-1.74,11.45-4.34,16.89-7.06,2.19-1.1,4.4-2.19,6.43-3.56,3.19-2.14,5.7-4.47,7.94-7.57,4.15-5.77,4.43-13.25,3.08-19.97-.65-3.22-1.9-6.24-3.19-9.24-.91-2.12-1.88-4.23-3.14-6.16-2.02-3.12-4.36-5.66-7.45-7.72-3.29-2.2-7.34-2.94-11.22-3.15-5.89-.32-11.87.29-17.68,1.17-10.91,1.66-22.12,6.53-29.24,15.23-3.8,4.65-6.98,9.95-8.15,15.91-1.25,6.35-.79,12.62,1.74,18.6,2.19,5.19,5.55,9.88,9.85,13.54,4.93,4.19,10.29,7.07,16.35,9.33,4.99,1.86,10.22,2.99,15.44,3.97,3.35.63,6.85,1.46,10.27,1.07,2.81-.32,5.14-.88,7.64-2.26,1.62-.9,3.11-2.13,4.46-3.4,1.83-1.72,3.43-3.7,4.97-5.67,2.02-2.58,3.98-5.19,5.73-7.96,3.17-5.02,5.69-10.46,7.74-16.02,1.96-5.32,3.33-11.33,2.83-17.03-.6-6.87-3.12-13.34-8.26-18.12-4.28-3.98-9.39-6.46-14.83-8.43-4.52-1.64-9.26-2.94-13.97-3.92-6.5-1.35-13.53-2.01-19.96.08-3.86,1.25-6.96,3.13-10.12,5.6-2.52,1.97-4.48,4.33-6.42,6.87-3.26,4.26-5.6,9.4-6.85,14.61-1.47,6.09-1.52,12.06-.53,18.21,1.78,11.05,8.89,20.56,17.87,26.89,4.02,2.84,8.78,4.92,13.57,6.04,2.51.59,5.22.34,7.47-.98,2.01-1.18,3.93-3.48,4.45-5.79,1.13-4.96-1.49-10.68-6.77-11.92h0Z"/>
    <path class="cls-4" d="m320.07,229.39c-.04-.25-.08-.51-.12-.76l.33,2.47c-.38-2.8-.36-5.61.01-8.41l-.33,2.47c.41-2.8,1.16-5.51,2.25-8.12l-.94,2.22c1.07-2.48,2.42-4.8,4.05-6.94l-1.45,1.88c1.59-2.03,3.39-3.84,5.43-5.42l-1.88,1.45c2.07-1.57,4.31-2.85,6.7-3.88l-2.22.94c2.64-1.1,5.39-1.84,8.23-2.24l-2.47.33c2.84-.36,5.68-.36,8.52.01l-2.47-.33c2.49.37,4.91,1.02,7.24,1.98l-2.22-.94c1.76.76,3.41,1.69,4.93,2.85l-1.88-1.45c1.25.99,2.35,2.1,3.33,3.37l-1.45-1.88c1.06,1.44,1.92,2.98,2.63,4.61l-.94-2.22c1.61,3.87,2.34,8,2.9,12.14l-.33-2.47c.7,5.32,1.39,10.74.69,16.09l.33-2.47c-.27,1.89-.73,3.72-1.46,5.48l.94-2.22c-.56,1.28-1.25,2.47-2.09,3.59l1.45-1.88c-.85,1.07-1.8,2.01-2.87,2.85l1.88-1.45c-1.27.96-2.64,1.73-4.1,2.37l2.22-.94c-2.55,1.07-5.24,1.7-7.98,2.07l2.47-.33c-5.41.68-10.95.48-16.34-.23l2.47.33c-5.33-.74-10.66-1.99-15.66-4.01l2.22.94c-1.11-.47-2.16-1.01-3.12-1.73l1.88,1.45c-.52-.42-.97-.87-1.39-1.39l1.45,1.88c-.46-.63-.83-1.3-1.15-2.01l.94,2.22c-.87-2.16-1.26-4.49-1.73-6.76-.53-2.61-1.01-5.24-1.37-7.88l.33,2.47c-.6-4.59-.81-9.22-.2-13.82l-.33,2.47c.4-2.77,1.12-5.47,2.18-8.06l-.94,2.22c.94-2.21,2.11-4.28,3.57-6.19l-1.45,1.88c1.16-1.47,2.46-2.79,3.94-3.95l-1.88,1.45c1.41-1.07,2.93-1.95,4.56-2.64l-2.22.94c1.64-.66,3.33-1.1,5.08-1.36l-2.47.33c2.27-.3,4.54-.27,6.82.03l-2.47-.33c2.43.36,4.79,1.01,7.06,1.94l-2.22-.94c2.52,1.06,4.86,2.43,7.02,4.1l-1.88-1.45c2.64,2.08,4.96,4.49,7.03,7.14l-1.45-1.88c3.64,4.74,6.39,10.06,8.71,15.54l-.94-2.22c.8,1.92,1.58,3.85,1.88,5.92l-.33-2.47c.09.85.09,1.68-.02,2.53l.33-2.47c-.15.92-.4,1.77-.74,2.64l.94-2.22c-.65,1.49-1.51,2.83-2.5,4.11l1.45-1.88c-2.12,2.68-4.55,5.15-7.24,7.26l1.88-1.45c-1.52,1.16-3.11,2.16-4.85,2.94l2.22-.94c-1.21.51-2.45.89-3.75,1.1l2.47-.33c-1.18.16-2.35.17-3.53.02l2.47.33c-1.09-.17-2.12-.47-3.15-.87l2.22.94c-1.92-.82-3.64-1.96-5.3-3.23l1.88,1.45c-5.47-4.31-10.79-9.16-15.07-14.67l1.45,1.88c-1.91-2.5-3.59-5.15-4.84-8.04l.94,2.22c-.76-1.83-1.32-3.71-1.63-5.67l.33,2.47c-.2-1.52-.23-3.02-.04-4.54l-.33,2.47c.18-1.19.48-2.33.94-3.44l-.94,2.22c.48-1.1,1.08-2.11,1.81-3.06l-1.45,1.88c.83-1.03,1.76-1.94,2.8-2.76l-1.88,1.45c1.17-.88,2.42-1.6,3.75-2.19l-2.22.94c1.58-.66,3.21-1.11,4.91-1.34l-2.47.33c1.77-.21,3.54-.17,5.31.06l-2.47-.33c2.26.33,4.42.97,6.52,1.84l-2.22-.94c2.62,1.13,5.06,2.6,7.33,4.32l-1.88-1.45c1.24.97,2.38,2.03,3.37,3.27l-1.45-1.88c.54.72,1,1.46,1.38,2.27l-.94-2.22c.29.7.49,1.39.6,2.14l-.33-2.47c.07.68.05,1.33-.04,2l.33-2.47c-.25,1.3-.72,2.51-1.23,3.73l.94-2.22c-1.2,2.83-2.57,5.59-4.44,8.05l1.45-1.88c-.94,1.19-1.96,2.28-3.14,3.23l1.88-1.45c-1.06.81-2.17,1.49-3.39,2.04l2.22-.94c-1.1.46-2.21.78-3.38.96l2.47-.33c-.91.11-1.79.12-2.7.04l2.47.33c-.85-.11-1.65-.31-2.45-.62l2.22.94c-.8-.34-1.53-.78-2.22-1.31l1.88,1.45c-.67-.55-1.27-1.17-1.8-1.85l1.45,1.88c-.52-.71-.95-1.45-1.31-2.25l.94,2.22c-.38-.91-.64-1.84-.79-2.81l.33,2.47c-.1-.86-.11-1.71,0-2.58l-.33,2.47c.12-.76.31-1.47.6-2.18l-.94,2.22c.3-.69.67-1.31,1.11-1.92l-1.45,1.88c.53-.67,1.12-1.26,1.78-1.79l-1.88,1.45c.77-.58,1.59-1.06,2.48-1.44l-2.22.94c.9-.36,1.81-.61,2.77-.75l-2.47.33c.85-.1,1.68-.1,2.53-.01l-2.47-.33c.85.12,1.65.34,2.44.66l-2.22-.94c.45.2.85.43,1.25.72l-1.88-1.45c.19.15.36.33.5.53l-1.45-1.88.18.32-.94-2.22c.1.23.16.48.17.73l-.33-2.47c.01.26,0,.51-.05.76l.33-2.47c-.23,1.06-.66,2.07-1.07,3.07l.94-2.22c-1.21,2.82-2.74,5.46-4.59,7.91l1.45-1.88c-1.24,1.6-2.58,3.17-4.1,4.51l1.88-1.45c-.39.3-.78.53-1.23.73l2.22-.94c-.35.14-.7.24-1.07.3l2.47-.33c-.26.02-.48.03-.74,0l2.47.33c-.15-.02-.29-.07-.42-.13l2.22.94-.18-.11,1.88,1.45-.16-.14,1.45,1.88c-.1-.11-.18-.24-.23-.38l.94,2.22-.07-.24c-1.32-4.67-6.62-8.03-11.41-6.48s-7.89,6.41-6.48,11.41c1.67,5.91,7.8,8.95,13.6,7.39,3.35-.9,5.96-3.07,8.23-5.6,4.13-4.58,7.12-9.66,9.3-15.41.78-2.05,1.12-4.2.82-6.38-.49-3.64-2.37-6.43-5.43-8.47-2.67-1.78-6.3-2.63-9.48-2.61-6.63.04-12.46,3.39-16.3,8.66-4.03,5.54-3.66,12.89-.92,18.84,2.38,5.17,7.66,9.42,13.33,10.29,3.65.56,7.35.47,10.83-.92s6.51-3.16,9.17-5.85c4.27-4.32,7.06-9.99,9.11-15.64,5.13-14.15-9.83-25.29-21.74-28.67s-25.59.52-31.74,11.56c-3.34,5.99-3.72,13.19-1.71,19.68,1.85,5.98,5.23,11.09,9.17,15.87,3.21,3.9,6.95,7.33,10.76,10.63,4.46,3.87,9.37,8.01,15.36,9.13,6.74,1.26,13.49-.41,19.02-4.44,4.79-3.49,9.18-7.73,12.41-12.74,2.03-3.15,3.09-6.65,3.38-10.37.26-3.26-.72-6.59-1.95-9.58-2.01-4.88-4.15-9.71-6.96-14.19-5.95-9.49-14.29-17.35-25.15-20.73s-23.58-1.22-31.95,7.06c-8.13,8.04-11.27,19.93-10.78,31.09.28,6.3,1.46,12.56,2.78,18.72.6,2.78,1.44,5.69,3.04,8.07,2.02,3.01,4.75,5.32,8.07,6.76,5.56,2.41,11.41,4.01,17.41,4.88s11.57,1.33,17.39.83,11.41-1.65,16.52-4.52c5.61-3.15,9.39-8.14,11.63-14.07,1.03-2.73,1.4-5.71,1.66-8.6.21-2.3.16-4.61,0-6.91-.36-5.19-1-10.46-2.03-15.55-1.16-5.73-3.44-11-7.06-15.59s-9.21-7.74-14.85-9.51c-10.49-3.29-22.44-1.68-31.94,3.72s-16.41,14.9-18.86,25.45c-1.33,5.7-1.35,11.19-.42,16.93.35,2.15,2.46,4.49,4.26,5.54,1.99,1.16,4.92,1.66,7.15.94s4.41-2.12,5.54-4.26l.94-2.22c.44-1.64.44-3.29,0-4.93h0Z"/>
  </g>
  <g class="cls-3">
    <g>
      <g>
        <g>
          <path class="cls-1" d="m382.76,298.59c-2.87-2.54-5.74-5.09-8.61-7.63-.75-.66-1.97-.79-2.69,0-.66.72-.8,1.99,0,2.69,2.87,2.54,5.74,5.09,8.61,7.63.75.66,1.97.79,2.69,0,.66-.72.8-1.99,0-2.69h0Z"/>
          <path class="cls-1" d="m374.2,293.07c.36-.84.82-1.64,1.33-2.41.25-.37.51-.73.77-1.09.07-.09.13-.18.2-.27.02-.03.23-.3.11-.14s.09-.11.11-.14c.09-.11.17-.22.26-.33,1.26-1.59,2.52-3.18,3.79-4.77.62-.78.82-1.94,0-2.69-.69-.63-2.03-.83-2.69,0-1.3,1.63-2.6,3.26-3.89,4.9s-2.47,3.17-3.27,5.01c-.21.49-.34.93-.19,1.47.12.44.46.92.88,1.14.82.43,2.18.29,2.61-.68h0Z"/>
        </g>
        <g>
          <path class="cls-1" d="m394.27,281.72c2.87,2.54,5.74,5.09,8.61,7.63.75.66,1.97.79,2.69,0,.66-.72.8-1.99,0-2.69-2.87-2.54-5.74-5.09-8.61-7.63-.75-.66-1.97-.79-2.69,0-.66.72-.8,1.99,0,2.69h0Z"/>
          <path class="cls-1" d="m402.84,287.25c-.36.84-.82,1.64-1.33,2.41-.25.37-.51.73-.77,1.09-.07.09-.13.18-.2.27-.02.03-.23.3-.11.14s-.09.11-.11.14c-.09.11-.17.22-.26.33-1.26,1.59-2.52,3.18-3.79,4.77-.62.78-.82,1.94,0,2.69.69.63,2.03.83,2.69,0,1.3-1.63,2.6-3.26,3.89-4.9s2.47-3.17,3.27-5.01c.21-.49.34-.93.19-1.47-.12-.44-.46-.92-.88-1.14-.82-.43-2.18-.29-2.61.68h0Z"/>
        </g>
      </g>
      <g>
        <path class="cls-1" d="m338.08,216.62c.92-3.47,1.95-6.91,3.12-10.31.58-1.68,1.18-3.35,1.82-5.01s1.35-3.41,1.94-4.79c.37-.88.29-2-.65-2.5-.78-.41-2.1-.28-2.5.65-2.92,6.81-5.36,13.81-7.25,20.98-.24.92.31,2.02,1.27,2.24s1.98-.29,2.24-1.27h0Z"/>
        <path class="cls-1" d="m329.25,213.57c.77-2.98,1.67-5.92,2.7-8.82.51-1.43,1.05-2.86,1.61-4.27s1.07-2.57,1.73-4.03c.39-.87.28-2-.65-2.5-.8-.42-2.07-.27-2.5.65-2.64,5.81-4.81,11.82-6.41,18-.24.92.3,2.02,1.27,2.24s1.99-.29,2.24-1.27h0Z"/>
        <path class="cls-1" d="m343.9,207.55c-6.07-1.51-12.3-2.25-18.48-3.15-.94-.14-2.01.23-2.24,1.27-.2.86.26,2.1,1.27,2.24,6.18.9,12.42,1.64,18.48,3.15.92.23,2.02-.3,2.24-1.27s-.28-2-1.27-2.24h0Z"/>
        <path class="cls-1" d="m344.55,200.42c-5.36-.8-10.71-1.6-16.07-2.4-.94-.14-2.01.23-2.24,1.27-.2.87.26,2.09,1.27,2.24,5.36.8,10.71,1.6,16.07,2.4.94.14,2.01-.23,2.24-1.27.2-.87-.26-2.09-1.27-2.24h0Z"/>
      </g>
      <g>
        <path class="cls-1" d="m500.62,286.84c1.56,0,3.33-.17,4.62-1.13.79-.59,1.37-1.39,1.55-2.38.21-1.15-.11-2.24-.48-3.32-.31-.89-.56-1.85-.64-2.74s-.07-1.99.08-2.72c.1-.46.19-.77.37-1.09.21-.39.29-.53.68-.81-.17.13.29-.15.34-.18-.21.1.29-.09.35-.1.18-.04.2-.04.04,0,.1,0,.2,0,.3,0-.28-.01.24.07.32.1-.22-.85-.45-1.7-.67-2.55.16-.13-.12.07-.18.11-.21.12.05.02-.19.07-.08.02-.43.07-.19.05-.08,0-.15,0-.23,0-.05,0-.38-.03-.12.01-.15-.02-.3-.07-.44-.11-.23-.07.02.04-.19-.09-.05-.04-.35-.24-.18-.11-.14-.11-.26-.24-.38-.37s-.02-.01,0,.01c-.04-.06-.09-.12-.13-.19-.08-.13-.15-.26-.22-.4-.08-.16,0-.01,0,.02-.03-.07-.05-.14-.07-.22-.03-.1-.1-.36-.1-.39-.14-.82.02-1.7.06-2.53.15-2.89-1.07-6.44-4.28-7.05-1.78-.34-3.46.21-4.55,1.68-.49.66-.11,1.7.55,2.09.78.45,1.59.12,2.09-.55-.15.2.04-.02.11-.08-.18.17.02,0,.11-.06.21-.15-.14,0,.11-.05.08-.02.46-.11.31-.09-.17.02.2,0,.26,0s.42.04.27.01.2.06.26.07c.07.02.13.04.19.06-.14-.04-.11-.06,0,0s.23.13.35.2c-.22-.14.07.06.14.13.11.11.22.22.31.34-.12-.15.12.19.16.26.2.33.21.39.29.62.11.32.19.66.24.99-.04-.22.01.16.02.22.01.16.02.31.02.47,0,.41-.02.82-.05,1.23-.06.92-.09,1.81.07,2.73.25,1.47,1.23,2.9,2.55,3.61,1.7.92,3.7.68,5.16-.56.94-.8.31-2.2-.67-2.55-1.55-.55-3.25.02-4.43,1.08-1.25,1.11-1.74,2.81-1.9,4.42s.03,3.45.5,5.07c.22.76.62,1.53.7,2.32.02.16-.02.38-.1.61.09-.24-.02-.02-.08.08.14-.24-.03.01-.12.11-.11.12.05-.03.07-.04-.07.05-.14.09-.21.14-.07.04-.41.21-.27.15.16-.07-.04.01-.06.02-.09.03-.17.06-.25.08-.15.05-.31.08-.46.12s-.32.06-.48.09c.29-.04-.13,0-.22.01-.34.03-.68.04-1.03.04-.82,0-1.52.7-1.52,1.52s.7,1.53,1.52,1.52h0Z"/>
        <path class="cls-1" d="m483.08,262.22c-1.56,0-3.33.17-4.62,1.13-.79.59-1.37,1.39-1.55,2.38-.21,1.15.11,2.24.48,3.32.31.89.56,1.85.64,2.74s.07,1.99-.08,2.72c-.1.46-.19.77-.37,1.09-.21.39-.29.53-.68.81.17-.13-.29.15-.34.18.21-.1-.29.09-.35.1-.18.04-.2.04-.04,0-.1,0-.2,0-.3,0,.28.01-.24-.07-.32-.1.22.85.45,1.7.67,2.55-.16.13.12-.07.18-.11.21-.12-.05-.02.19-.07.08-.02.43-.07.19-.05.08,0,.15,0,.23,0,.05,0,.38.03.12-.01.15.02.3.07.44.11.23.07-.02-.04.19.09.05.04.35.24.18.11.14.11.26.24.38.37s.02.01,0-.01c.04.06.09.12.13.19.08.13.15.26.22.4.08.16,0,.01,0-.02.03.07.05.14.07.22.03.1.1.36.1.39.14.82-.02,1.7-.06,2.53-.15,2.89,1.07,6.44,4.28,7.05,1.78.34,3.46-.21,4.55-1.68.49-.66.11-1.7-.55-2.09-.78-.45-1.59-.12-2.09.55.15-.2-.04.02-.11.08.18-.17-.02,0-.11.06-.21.15.14,0-.11.05-.08.02-.46.11-.31.09.17-.02-.2,0-.26,0s-.42-.04-.27-.01-.2-.06-.26-.07c-.07-.02-.13-.04-.19-.06.14.04.11.06,0,0s-.23-.13-.35-.2c.22.14-.07-.06-.14-.13-.11-.11-.22-.22-.31-.34.12.15-.12-.19-.16-.26-.2-.33-.21-.39-.29-.62-.11-.32-.19-.66-.24-.99.04.22-.01-.16-.02-.22-.01-.16-.02-.31-.02-.47,0-.41.02-.82.05-1.23.06-.92.09-1.81-.07-2.73-.25-1.47-1.23-2.9-2.55-3.61-1.7-.92-3.7-.68-5.16.56-.94.8-.31,2.2.67,2.55,1.55.55,3.25-.02,4.43-1.08,1.25-1.11,1.74-2.81,1.9-4.42s-.03-3.45-.5-5.07c-.22-.76-.62-1.53-.7-2.32-.02-.16.02-.38.1-.61-.09.24.02.02.08-.08-.14.24.03-.01.12-.11.11-.12-.05.03-.07.04.07-.05.14-.09.21-.14.07-.04.41-.21.27-.15-.16.07.04-.01.06-.02.09-.03.17-.06.25-.08.15-.05.31-.08.46-.12s.32-.06.48-.09c-.29.04.13,0,.22-.01.34-.03.68-.04,1.03-.04.82,0,1.52-.7,1.52-1.52s-.7-1.53-1.52-1.52h0Z"/>
      </g>
      <g>
        <path class="cls-1" d="m435.24,200.01c.14.07.28.14.4.24l-.47-.36c.14.11.26.23.36.37l-.36-.47c.09.13.17.26.24.4l-.23-.55c.05.13.09.25.11.38l-.08-.62c.02.12.02.23,0,.35l.08-.62c-.02.08-.04.15-.07.23l.23-.55c-.04.08-.08.15-.13.22l.36-.47c-.07.09-.16.17-.25.24l.47-.36c-.16.12-.34.21-.52.29l.55-.23c-.33.14-.69.25-1.04.3l.62-.08c-.12.01-.24.02-.35,0l.62.08c-.06-.01-.13-.03-.19-.05l.55.23c-.06-.03-.11-.06-.17-.1l.47.36s-.08-.07-.11-.11l.36.47c-.06-.08-.1-.15-.14-.24l.23.55c-.12-.28-.19-.59-.23-.89l.08.62c-.02-.19-.03-.39,0-.58l-.08.62c.02-.14.05-.27.1-.4l-.23.55c.05-.11.11-.21.18-.31l-.36.47c.06-.07.12-.14.2-.19l-.47.36c.1-.07.2-.13.32-.18l-.55.23c.12-.04.23-.08.36-.09l-.62.08c.12-.01.25-.01.37,0l-.62-.08c.12.02.24.05.36.1l-.55-.23c.1.05.19.1.28.17l-.47-.36c.1.08.19.17.26.27l-.36-.47c.08.1.14.21.19.33l-.23-.55c.05.13.09.27.12.41l-.08-.62c.02.14.02.28,0,.43l.08-.62c-.02.13-.05.25-.1.37l.23-.55c-.06.15-.15.29-.25.42l.36-.47c-.09.12-.2.22-.31.31l.47-.36c-.13.1-.27.18-.42.25l.55-.23c-.14.06-.29.1-.44.12l.62-.08c-.08,0-.16,0-.24,0l.62.08c-.09-.01-.17-.03-.25-.07l.55.23c-.09-.04-.17-.09-.25-.15l.47.36c-.09-.07-.17-.16-.24-.25l.36.47c-.15-.2-.27-.41-.36-.64l.23.55c-.08-.21-.15-.41-.18-.63l.08.62c-.02-.14-.02-.27,0-.41l-.08.62c.02-.12.04-.23.09-.34l-.23.55c.04-.08.08-.15.13-.22l-.36.47c.06-.07.12-.12.18-.18l-.47.36c.07-.05.14-.09.22-.13l-.55.23c.08-.03.16-.05.24-.07l-.62.08c.07,0,.13,0,.2,0l-.62-.08c.07.01.13.03.19.05l-.55-.23s.07.04.11.06l-.47-.36.03.03c.21.23.46.39.75.48.28.15.57.21.89.2.57,0,1.25-.25,1.64-.68s.71-1.02.68-1.64l-.08-.62c-.11-.39-.31-.73-.6-1.02-.43-.34-.78-.61-1.33-.73s-1.04-.13-1.58.02c-.45.13-.77.31-1.13.58s-.63.54-.87.95c-.49.86-.54,1.83-.34,2.78.08.38.26.75.41,1.1.08.17.16.33.26.48.52.74,1.19,1.39,2.09,1.61s1.92.05,2.76-.42c.61-.34,1.13-.87,1.5-1.47.04-.07.08-.14.11-.21.11-.24.23-.49.3-.74.11-.35.16-.73.15-1.09-.01-.69-.2-1.45-.58-2.03-.18-.28-.39-.57-.64-.79-.47-.41-.8-.59-1.39-.82-.32-.12-.69-.15-1.02-.17-.36-.02-.73.04-1.08.13-.32.08-.65.22-.94.4-.51.32-.8.63-1.14,1.11-.21.28-.34.63-.45.96-.12.36-.16.75-.17,1.13s.06.74.12,1.1c.03.19.08.39.14.57.11.35.24.7.45,1,.32.46.48.63.95.95.04.03.08.05.12.08.19.1.44.21.64.27.26.08.54.1.81.12.09,0,.17,0,.25,0,.38-.03.77-.08,1.13-.19.53-.15,1.08-.35,1.55-.65.76-.49,1.36-1.17,1.6-2.05.26-.96.06-2.06-.48-2.9-.41-.64-.99-1.25-1.69-1.57-.27-.17-.55-.26-.86-.28-.31-.07-.62-.06-.93.04-.54.15-1.12.56-1.39,1.07-.28.54-.43,1.19-.23,1.79.18.54.53,1.14,1.07,1.39h0Z"/>
        <path class="cls-1" d="m435.24,216.57c.14.07.28.14.4.24l-.47-.36c.14.11.26.23.36.37l-.36-.47c.09.13.17.26.24.4l-.23-.55c.05.13.09.25.11.38l-.08-.62c.02.12.02.23,0,.35l.08-.62c-.02.08-.04.15-.07.23l.23-.55c-.04.08-.08.15-.13.22l.36-.47c-.07.09-.16.17-.25.24l.47-.36c-.16.12-.34.21-.52.29l.55-.23c-.33.14-.69.25-1.04.3l.62-.08c-.12.01-.24.02-.35,0l.62.08c-.06-.01-.13-.03-.19-.05l.55.23c-.06-.03-.11-.06-.17-.1l.47.36s-.08-.07-.11-.11l.36.47c-.06-.08-.1-.15-.14-.24l.23.55c-.12-.28-.19-.59-.23-.89l.08.62c-.02-.19-.03-.39,0-.58l-.08.62c.02-.14.05-.27.1-.4l-.23.55c.05-.11.11-.21.18-.31l-.36.47c.06-.07.12-.14.2-.19l-.47.36c.1-.07.2-.13.32-.18l-.55.23c.12-.04.23-.08.36-.09l-.62.08c.12-.01.25-.01.37,0l-.62-.08c.12.02.24.05.36.1l-.55-.23c.1.05.19.1.28.17l-.47-.36c.1.08.19.17.26.27l-.36-.47c.08.1.14.21.19.33l-.23-.55c.05.13.09.27.12.41l-.08-.62c.02.14.02.28,0,.43l.08-.62c-.02.13-.05.25-.1.37l.23-.55c-.06.15-.15.29-.25.42l.36-.47c-.09.12-.2.22-.31.31l.47-.36c-.13.1-.27.18-.42.25l.55-.23c-.14.06-.29.1-.44.12l.62-.08c-.08,0-.16,0-.24,0l.62.08c-.09-.01-.17-.03-.25-.07l.55.23c-.09-.04-.17-.09-.25-.15l.47.36c-.09-.07-.17-.16-.24-.25l.36.47c-.15-.2-.27-.41-.36-.64l.23.55c-.08-.21-.15-.41-.18-.63l.08.62c-.02-.14-.02-.27,0-.41l-.08.62c.02-.12.04-.23.09-.34l-.23.55c.04-.08.08-.15.13-.22l-.36.47c.06-.07.12-.12.18-.18l-.47.36c.07-.05.14-.09.22-.13l-.55.23c.08-.03.16-.05.24-.07l-.62.08c.07,0,.13,0,.2,0l-.62-.08c.07.01.13.03.19.05l-.55-.23s.07.04.11.06l-.47-.36.03.03c.21.23.46.39.75.48.28.15.57.21.89.2.57,0,1.25-.25,1.64-.68s.71-1.02.68-1.64l-.08-.62c-.11-.39-.31-.73-.6-1.02-.43-.34-.78-.61-1.33-.73s-1.04-.13-1.58.02c-.45.13-.77.31-1.13.58s-.63.54-.87.95c-.49.86-.54,1.83-.34,2.78.08.38.26.75.41,1.1.08.17.16.33.26.48.52.74,1.19,1.39,2.09,1.61s1.92.05,2.76-.42c.61-.34,1.13-.87,1.5-1.47.04-.07.08-.14.11-.21.11-.24.23-.49.3-.74.11-.35.16-.73.15-1.09-.01-.69-.2-1.45-.58-2.03-.18-.28-.39-.57-.64-.79-.47-.41-.8-.59-1.39-.82-.32-.12-.69-.15-1.02-.17-.36-.02-.73.04-1.08.13-.32.08-.65.22-.94.4-.51.32-.8.63-1.14,1.11-.21.28-.34.63-.45.96-.12.36-.16.75-.17,1.13s.06.74.12,1.1c.03.19.08.39.14.57.11.35.24.7.45,1,.32.46.48.63.95.95.04.03.08.05.12.08.19.1.44.21.64.27.26.08.54.1.81.12.09,0,.17,0,.25,0,.38-.03.77-.08,1.13-.19.53-.15,1.08-.35,1.55-.65.76-.49,1.36-1.17,1.6-2.05.26-.96.06-2.06-.48-2.9-.41-.64-.99-1.25-1.69-1.57-.27-.17-.55-.26-.86-.28-.31-.07-.62-.06-.93.04-.54.15-1.12.56-1.39,1.07-.28.54-.43,1.19-.23,1.79.18.54.53,1.14,1.07,1.39h0Z"/>
      </g>
    </g>
    <g>
      <path class="cls-1" d="m481.31,123.93c.92-3.47,1.95-6.91,3.12-10.31.58-1.68,1.18-3.35,1.82-5.01s1.35-3.41,1.94-4.79c.37-.88.29-2-.65-2.5-.78-.41-2.1-.28-2.5.65-2.92,6.81-5.36,13.81-7.25,20.98-.24.92.31,2.02,1.27,2.24s1.98-.29,2.24-1.27h0Z"/>
      <path class="cls-1" d="m472.48,120.88c.77-2.98,1.67-5.92,2.7-8.82.51-1.43,1.05-2.86,1.61-4.27s1.07-2.57,1.73-4.03c.39-.87.28-2-.65-2.5-.8-.42-2.07-.27-2.5.65-2.64,5.81-4.81,11.82-6.41,18-.24.92.3,2.02,1.27,2.24s1.99-.29,2.24-1.27h0Z"/>
      <path class="cls-1" d="m487.13,114.87c-6.07-1.51-12.3-2.25-18.48-3.15-.94-.14-2.01.23-2.24,1.27-.2.86.26,2.1,1.27,2.24,6.18.9,12.42,1.64,18.48,3.15.92.23,2.02-.3,2.24-1.27s-.28-2-1.27-2.24h0Z"/>
      <path class="cls-1" d="m487.77,107.73c-5.36-.8-10.71-1.6-16.07-2.4-.94-.14-2.01.23-2.24,1.27-.2.87.26,2.09,1.27,2.24,5.36.8,10.71,1.6,16.07,2.4.94.14,2.01-.23,2.24-1.27.2-.87-.26-2.09-1.27-2.24h0Z"/>
    </g>
    <g>
      <path class="cls-1" d="m480.53,125.03c.92-3.47,1.95-6.91,3.12-10.31.58-1.68,1.18-3.35,1.82-5.01s1.35-3.41,1.94-4.79c.37-.88.29-2-.65-2.5-.78-.41-2.1-.28-2.5.65-2.92,6.81-5.36,13.81-7.25,20.98-.24.92.31,2.02,1.27,2.24s1.98-.29,2.24-1.27h0Z"/>
      <path class="cls-1" d="m471.71,121.98c.77-2.98,1.67-5.92,2.7-8.82.51-1.43,1.05-2.86,1.61-4.27s1.07-2.57,1.73-4.03c.39-.87.28-2-.65-2.5-.8-.42-2.07-.27-2.5.65-2.64,5.81-4.81,11.82-6.41,18-.24.92.3,2.02,1.27,2.24s1.99-.29,2.24-1.27h0Z"/>
      <path class="cls-1" d="m486.36,115.96c-6.07-1.51-12.3-2.25-18.48-3.15-.94-.14-2.01.23-2.24,1.27-.2.86.26,2.1,1.27,2.24,6.18.9,12.42,1.64,18.48,3.15.92.23,2.02-.3,2.24-1.27s-.28-2-1.27-2.24h0Z"/>
      <path class="cls-1" d="m487,108.83c-5.36-.8-10.71-1.6-16.07-2.4-.94-.14-2.01.23-2.24,1.27-.2.87.26,2.09,1.27,2.24,5.36.8,10.71,1.6,16.07,2.4.94.14,2.01-.23,2.24-1.27.2-.87-.26-2.09-1.27-2.24h0Z"/>
    </g>
    <g>
      <g>
        <path class="cls-1" d="m505.11,436.94c-2.87-2.54-5.74-5.09-8.61-7.63-.75-.66-1.97-.79-2.69,0-.66.72-.8,1.99,0,2.69,2.87,2.54,5.74,5.09,8.61,7.63.75.66,1.97.79,2.69,0,.66-.72.8-1.99,0-2.69h0Z"/>
        <path class="cls-1" d="m496.54,431.42c.36-.84.82-1.64,1.33-2.41.25-.37.51-.73.77-1.09.07-.09.13-.18.2-.27.02-.03.23-.3.11-.14s.09-.11.11-.14c.09-.11.17-.22.26-.33,1.26-1.59,2.52-3.18,3.79-4.77.62-.78.82-1.94,0-2.69-.69-.63-2.03-.83-2.69,0-1.3,1.63-2.6,3.26-3.89,4.9s-2.47,3.17-3.27,5.01c-.21.49-.34.93-.19,1.47.12.44.46.92.88,1.14.82.43,2.18.29,2.61-.68h0Z"/>
      </g>
      <g>
        <path class="cls-1" d="m460.42,354.97c.92-3.47,1.95-6.91,3.12-10.31.58-1.68,1.18-3.35,1.82-5.01s1.35-3.41,1.94-4.79c.37-.88.29-2-.65-2.5-.78-.41-2.1-.28-2.5.65-2.92,6.81-5.36,13.81-7.25,20.98-.24.92.31,2.02,1.27,2.24s1.98-.29,2.24-1.27h0Z"/>
        <path class="cls-1" d="m451.6,351.92c.77-2.98,1.67-5.92,2.7-8.82.51-1.43,1.05-2.86,1.61-4.27s1.07-2.57,1.73-4.03c.39-.87.28-2-.65-2.5-.8-.42-2.07-.27-2.5.65-2.64,5.81-4.81,11.82-6.41,18-.24.92.3,2.02,1.27,2.24s1.99-.29,2.24-1.27h0Z"/>
        <path class="cls-1" d="m466.25,345.91c-6.07-1.51-12.3-2.25-18.48-3.15-.94-.14-2.01.23-2.24,1.27-.2.86.26,2.1,1.27,2.24,6.18.9,12.42,1.64,18.48,3.15.92.23,2.02-.3,2.24-1.27s-.28-2-1.27-2.24h0Z"/>
        <path class="cls-1" d="m466.89,338.77c-5.36-.8-10.71-1.6-16.07-2.4-.94-.14-2.01.23-2.24,1.27-.2.87.26,2.09,1.27,2.24,5.36.8,10.71,1.6,16.07,2.4.94.14,2.01-.23,2.24-1.27.2-.87-.26-2.09-1.27-2.24h0Z"/>
      </g>
    </g>
  </g>
</svg>