<?xml version="1.0" encoding="UTF-8"?>
<svg id="uuid-03d4153c-d420-43ce-999c-4b1d7d87d90e" data-name="Capa 1" xmlns="http://www.w3.org/2000/svg" width="17.6cm" height="5.4cm" xmlns:xlink="http://www.w3.org/1999/xlink" viewBox="0 0 498.2 154.2">
  <defs>
    <clipPath id="uuid-b3712941-9f2e-4130-8aa6-e6bade654fc5">
      <rect x="520.6" y="-281.9" width="1404.9" height="604.5" style="fill: none;"/>
    </clipPath>
  </defs>
  <g>
    <path d="m170.3,70c-1.8-.4-3.5-1-5.2-1.7l2.3,1c-2.6-1.1-5-2.5-7.2-4.2l2,1.5c-2.2-1.7-4.2-3.7-5.9-5.9l1.5,2c-1.7-2.2-3.1-4.6-4.3-7.2.3.8.7,1.5,1,2.3-1.1-2.6-1.8-5.3-2.2-8.1l.3,2.6c-.4-2.8-.3-5.7,0-8.5l-.3,2.6c.4-3,1.2-5.8,2.3-8.6-.3.8-.7,1.5-1,2.3,1.1-2.6,2.5-5.1,4.3-7.3l-1.5,2c1.4-1.8,3.1-3.5,4.9-4.9l-2,1.5c1.3-1,2.7-1.8,4.2-2.5l-2.3,1c1.6-.7,3.3-1.1,5-1.4l-2.6.3c2.6-.3,5.3-.3,7.9,0l-2.6-.3c3.7.5,7.4,1.5,11,2.5s6,1.8,8.9,3l-2.3-1c2.4,1,4.7,2.3,6.8,3.9-.7-.5-1.3-1-2-1.5,1.2.9,2.3,2,3.2,3.2l-1.5-2c.9,1.2,1.7,2.5,2.3,3.9-.3-.8-.7-1.5-1-2.3.6,1.4.9,2.8,1.2,4.3-.1-.9-.2-1.7-.3-2.6.3,2.2.2,4.4,0,6.6.1-.9.2-1.7.3-2.6-.6,4.1-1.9,8-3.5,11.8.3-.8.7-1.5,1-2.3-2.5,5.8-5.7,11.3-9.5,16.4l1.5-2c-1.9,2.5-4,5.1-6.4,7l2-1.5c-.6.5-1.3.9-2,1.2l2.3-1c-.7.3-1.3.5-2.1.6l2.6-.3c-1.2.2-2.4.1-3.7,0l2.6.3c-7.3-1-14.7-2.7-21.5-5.5l2.3,1c-3.1-1.3-6.1-3-8.8-5.1l2,1.5c-2.1-1.6-4-3.5-5.6-5.6l1.5,2c-1.4-1.8-2.5-3.7-3.4-5.8.3.8.7,1.5,1,2.3-.7-1.7-1.2-3.5-1.5-5.4.1.9.2,1.7.3,2.6-.2-1.9-.2-3.7,0-5.6-.1.9-.2,1.7-.3,2.6.3-2.1.9-4.1,1.7-6.1-.3.8-.7,1.5-1,2.3,1-2.2,2.2-4.3,3.7-6.2l-1.5,2c1.7-2.1,3.6-4,5.7-5.7l-2,1.5c2.4-1.8,5-3.3,7.8-4.4l-2.3,1c4.2-1.7,8.7-2.8,13.2-3.4l-2.6.3c5.1-.7,10.5-1.1,15.6-.5l-2.6-.3c1,.2,2,.4,3,.8l-2.3-1c.8.4,1.5.8,2.2,1.3l-2-1.5c1,.8,1.8,1.6,2.5,2.6l-1.5-2c1.7,2.3,2.9,4.8,4,7.4l-1-2.3c1.1,2.7,2,5.5,2.5,8.3-.1-.9-.2-1.7-.3-2.6.2,1.7.3,3.4,0,5.2.1-.9.2-1.7.3-2.6-.2,1.2-.5,2.3-.9,3.4.3-.8.7-1.5,1-2.3-.4,1-.9,1.8-1.6,2.7l1.5-2c-.9,1.1-1.9,2.1-2.9,2.9l2-1.5c-2.2,1.7-4.6,2.9-7,4.2s-5.7,2.8-8.6,4l2.3-1c-4.4,1.8-9,3.3-13.8,4l2.6-.3c-2.6.3-5.2.4-7.8,0l2.6.3c-1.7-.3-3.3-.7-4.8-1.3l2.3,1c-1.2-.5-2.3-1.1-3.3-1.9l2,1.5c-1-.8-1.8-1.6-2.5-2.5l1.5,2c-.8-1-1.4-2.2-1.9-3.3l1,2.3c-.6-1.4-1-2.9-1.2-4.5.1.9.2,1.7.3,2.6-.2-1.7-.2-3.4,0-5l-.3,2.6c.2-1.7.7-3.3,1.4-4.9-.3.8-.7,1.5-1,2.3.8-1.9,1.9-3.6,3.1-5.3l-1.5,2c1.6-2,3.4-3.8,5.5-5.4l-2,1.5c2.1-1.6,4.4-3.1,6.9-4.1l-2.3,1c1.2-.5,2.4-.8,3.6-1l-2.6.3c.8,0,1.6,0,2.4,0l-2.6-.3c.5,0,1,.2,1.6.4l-2.3-1c.8.3,1.5.8,2.1,1.3l-2-1.5c2.3,1.9,4.3,4.1,6.1,6.4l-1.5-2c1.3,1.7,2.4,3.5,3.2,5.4l-1-2.3c.6,1.4.9,2.7,1.2,4.2-.1-.9-.2-1.7-.3-2.6.2,1.3.2,2.6,0,3.9.1-.9.2-1.7.3-2.6-.2,1.1-.4,2.2-.9,3.3.3-.8.7-1.5,1-2.3-.4.8-.8,1.6-1.4,2.3l1.5-2c-.5.6-1,1.1-1.6,1.6l2-1.5c-.7.5-1.4.9-2.2,1.3l2.3-1c-.9.4-1.8.6-2.8.8l2.6-.3c-1.1.1-2.1.2-3.2,0l2.6.3c-1-.1-1.9-.4-2.8-.8l2.3,1c-.7-.3-1.3-.7-1.9-1.1l2,1.5c-.6-.5-1.1-1-1.6-1.6l1.5,2c-.5-.7-1-1.4-1.3-2.2.3.8.7,1.5,1,2.3-.4-.9-.6-1.8-.8-2.8l.3,2.6c-.1-1-.1-2,0-2.9-.1.9-.2,1.7-.3,2.6.1-1,.4-1.9.7-2.8-.3.8-.7,1.5-1,2.3.3-.8.8-1.5,1.3-2.2l-1.5,2c.4-.5.9-1,1.4-1.4l-2,1.5c.3-.2.6-.4,1-.6l-2.3,1h.4c-.9,0-1.7.1-2.6.2.3,0,.5,0,.8,0l-2.6-.3h.4c-.8-.2-1.5-.6-2.3-.9.4.2.7.3,1.1.6l-2-1.5c1.9,1.5,3.6,3.4,5.2,5.4l-1.5-2c2,2.6,3.7,5.5,5,8.6l-1-2.3c.3.7.6,1.4.7,2.2l-.3-2.6c0,.5,0,.9,0,1.4.1-.9.2-1.7.3-2.6,0,.3-.1.5-.2.8.3-.8.7-1.5,1-2.3,0,.1-.1.3-.2.4l1.5-2c0,.1-.2.2-.3.3l2-1.5c-.1,0-.2.2-.4.2l2.3-1h-.2c.9,0,1.7-.2,2.6-.3-.2,0-.3,0-.5,0-2.3-.3-5.3,1.3-6.9,2.8-1.7,1.7-2.9,4.4-2.8,6.9s.9,5.1,2.8,6.9l2,1.5c1.5.9,3.1,1.3,4.9,1.3,1.5.2,3.1-.3,4.4-.9s2.5-1.3,3.6-2.4c2.3-2.2,3.1-5.2,3.4-8.2.4-3.6-1.3-7.1-2.8-10.2-2.4-5-6-9.8-10.1-13.5s-3.9-3.2-6.5-3.8c-3.8-1-7.5.1-10.6,2.5-3.1,2.4-5.1,5.6-6.4,9.3-1.2,3.4-1.1,6.9-.5,10.3.4,2.6,1.5,5.2,3.1,7.4s2.4,3,4.1,4.3c1.7,1.4,3.4,2.2,5.5,3,2.4.9,5.3,1.3,7.9,1s6.8-1.1,9.7-3.1c2.9-2,5.4-4.5,6.9-7.7s2.5-7.1,2.3-10.9c-.3-4-1.2-7.4-2.9-11-1.4-2.9-3.4-5.5-5.5-7.9-2.1-2.5-4.4-4.7-7-6.6-6.7-5-15.7-3.2-22.4.7-5.3,3.1-9.7,7.2-13.3,12.1-3.5,4.8-5.5,10.8-5.6,16.8-.1,6.6,2.2,12.8,6.3,17.8,1.8,2.2,4.3,4.1,6.9,5.4,3.6,1.7,6.9,2.5,10.8,3s4.7.2,7.1,0c3.4-.4,6.7-1,10-1.9,5.8-1.7,11.4-4.3,16.9-7.1,2.2-1.1,4.4-2.2,6.4-3.6,3.2-2.1,5.7-4.5,7.9-7.6,4.2-5.8,4.4-13.2,3.1-20-.6-3.2-1.9-6.2-3.2-9.2s-1.9-4.2-3.1-6.2c-2-3.1-4.4-5.7-7.5-7.7s-7.3-2.9-11.2-3.2c-5.9-.3-11.9.3-17.7,1.2-10.9,1.7-22.1,6.5-29.2,15.2-3.8,4.6-7,9.9-8.2,15.9-1.2,6.4-.8,12.6,1.7,18.6,2.2,5.2,5.5,9.9,9.9,13.5s10.3,7.1,16.3,9.3,10.2,3,15.4,4,6.8,1.5,10.3,1.1,5.1-.9,7.6-2.3c1.6-.9,3.1-2.1,4.5-3.4,1.8-1.7,3.4-3.7,5-5.7,2-2.6,4-5.2,5.7-8,3.2-5,5.7-10.5,7.7-16,2-5.3,3.3-11.3,2.8-17-.6-6.9-3.1-13.3-8.3-18.1-4.3-4-9.4-6.5-14.8-8.4-4.5-1.6-9.3-2.9-14-3.9s-13.5-2-20,0-7,3.1-10.1,5.6-4.5,4.3-6.4,6.9c-3.3,4.3-5.6,9.4-6.9,14.6-1.5,6.1-1.5,12.1-.5,18.2,1.8,11,8.9,20.6,17.9,26.9s8.8,4.9,13.6,6c2.5.6,5.2.3,7.5-1s3.9-3.5,4.5-5.8c1.1-5-1.5-10.7-6.8-11.9h0Z" style="fill: #5f6f94;"/>
    <path d="m320.1,52.3c0-.3,0-.5-.1-.8l.3,2.5c-.4-2.8-.4-5.6,0-8.4-.1.8-.2,1.6-.3,2.5.4-2.8,1.2-5.5,2.3-8.1-.3.7-.6,1.5-.9,2.2,1.1-2.5,2.4-4.8,4-6.9-.5.6-1,1.3-1.5,1.9,1.6-2,3.4-3.8,5.4-5.4l-1.9,1.5c2.1-1.6,4.3-2.9,6.7-3.9l-2.2.9c2.6-1.1,5.4-1.8,8.2-2.2l-2.5.3c2.8-.4,5.7-.4,8.5,0l-2.5-.3c2.5.4,4.9,1,7.2,2l-2.2-.9c1.8.8,3.4,1.7,4.9,2.8l-1.9-1.5c1.2,1,2.4,2.1,3.3,3.4-.5-.6-1-1.3-1.5-1.9,1.1,1.4,1.9,3,2.6,4.6l-.9-2.2c1.6,3.9,2.3,8,2.9,12.1-.1-.8-.2-1.6-.3-2.5.7,5.3,1.4,10.7.7,16.1l.3-2.5c-.3,1.9-.7,3.7-1.5,5.5.3-.7.6-1.5.9-2.2-.6,1.3-1.3,2.5-2.1,3.6.5-.6,1-1.3,1.5-1.9-.8,1.1-1.8,2-2.9,2.8l1.9-1.5c-1.3,1-2.6,1.7-4.1,2.4l2.2-.9c-2.6,1.1-5.2,1.7-8,2.1l2.5-.3c-5.4.7-10.9.5-16.3-.2l2.5.3c-5.3-.7-10.7-2-15.7-4l2.2.9c-1.1-.5-2.2-1-3.1-1.7l1.9,1.5c-.5-.4-1-.9-1.4-1.4l1.5,1.9c-.5-.6-.8-1.3-1.1-2,.3.7.6,1.5.9,2.2-.9-2.2-1.3-4.5-1.7-6.8s-1-5.2-1.4-7.9l.3,2.5c-.6-4.6-.8-9.2-.2-13.8l-.3,2.5c.4-2.8,1.1-5.5,2.2-8.1l-.9,2.2c.9-2.2,2.1-4.3,3.6-6.2l-1.5,1.9c1.2-1.5,2.5-2.8,3.9-3.9l-1.9,1.5c1.4-1.1,2.9-1.9,4.6-2.6l-2.2.9c1.6-.7,3.3-1.1,5.1-1.4l-2.5.3c2.3-.3,4.5-.3,6.8,0l-2.5-.3c2.4.4,4.8,1,7.1,1.9l-2.2-.9c2.5,1.1,4.9,2.4,7,4.1l-1.9-1.5c2.6,2.1,5,4.5,7,7.1l-1.5-1.9c3.6,4.7,6.4,10.1,8.7,15.5l-.9-2.2c.8,1.9,1.6,3.8,1.9,5.9l-.3-2.5c0,.9,0,1.7,0,2.5l.3-2.5c-.1.9-.4,1.8-.7,2.6l.9-2.2c-.6,1.5-1.5,2.8-2.5,4.1.5-.6,1-1.3,1.5-1.9-2.1,2.7-4.6,5.2-7.2,7.3l1.9-1.5c-1.5,1.2-3.1,2.2-4.8,2.9l2.2-.9c-1.2.5-2.4.9-3.7,1.1l2.5-.3c-1.2.2-2.3.2-3.5,0l2.5.3c-1.1-.2-2.1-.5-3.2-.9l2.2.9c-1.9-.8-3.6-2-5.3-3.2l1.9,1.5c-5.5-4.3-10.8-9.2-15.1-14.7l1.5,1.9c-1.9-2.5-3.6-5.2-4.8-8,.3.7.6,1.5.9,2.2-.8-1.8-1.3-3.7-1.6-5.7l.3,2.5c-.2-1.5-.2-3,0-4.5l-.3,2.5c.2-1.2.5-2.3.9-3.4l-.9,2.2c.5-1.1,1.1-2.1,1.8-3.1l-1.5,1.9c.8-1,1.8-1.9,2.8-2.8-.6.5-1.3,1-1.9,1.5,1.2-.9,2.4-1.6,3.8-2.2l-2.2.9c1.6-.7,3.2-1.1,4.9-1.3l-2.5.3c1.8-.2,3.5-.2,5.3,0l-2.5-.3c2.3.3,4.4,1,6.5,1.8l-2.2-.9c2.6,1.1,5.1,2.6,7.3,4.3l-1.9-1.5c1.2,1,2.4,2,3.4,3.3l-1.5-1.9c.5.7,1,1.5,1.4,2.3l-.9-2.2c.3.7.5,1.4.6,2.1l-.3-2.5c0,.7,0,1.3,0,2,.1-.8.2-1.6.3-2.5-.2,1.3-.7,2.5-1.2,3.7.3-.7.6-1.5.9-2.2-1.2,2.8-2.6,5.6-4.4,8l1.5-1.9c-.9,1.2-2,2.3-3.1,3.2l1.9-1.5c-1.1.8-2.2,1.5-3.4,2l2.2-.9c-1.1.5-2.2.8-3.4,1l2.5-.3c-.9.1-1.8.1-2.7,0l2.5.3c-.8-.1-1.7-.3-2.5-.6l2.2.9c-.8-.3-1.5-.8-2.2-1.3l1.9,1.5c-.7-.6-1.3-1.2-1.8-1.9.5.6,1,1.3,1.5,1.9-.5-.7-.9-1.4-1.3-2.2.3.7.6,1.5.9,2.2-.4-.9-.6-1.8-.8-2.8l.3,2.5c-.1-.9-.1-1.7,0-2.6l-.3,2.5c.1-.8.3-1.5.6-2.2l-.9,2.2c.3-.7.7-1.3,1.1-1.9-.5.6-1,1.3-1.5,1.9.5-.7,1.1-1.3,1.8-1.8l-1.9,1.5c.8-.6,1.6-1.1,2.5-1.4l-2.2.9c.9-.4,1.8-.6,2.8-.7l-2.5.3c.8,0,1.7-.1,2.5,0l-2.5-.3c.8.1,1.6.3,2.4.7l-2.2-.9c.4.2.9.4,1.2.7l-1.9-1.5c.2.2.4.3.5.5l-1.5-1.9.2.3-.9-2.2c.1.2.2.5.2.7-.1-.8-.2-1.6-.3-2.5,0,.3,0,.5,0,.8l.3-2.5c-.2,1.1-.7,2.1-1.1,3.1.3-.7.6-1.5.9-2.2-1.2,2.8-2.7,5.5-4.6,7.9l1.5-1.9c-1.2,1.6-2.6,3.2-4.1,4.5.6-.5,1.3-1,1.9-1.5-.4.3-.8.5-1.2.7l2.2-.9c-.4.1-.7.2-1.1.3l2.5-.3c-.3,0-.5,0-.7,0l2.5.3c-.1,0-.3,0-.4-.1l2.2.9h-.2c.6.4,1.3.9,1.9,1.3h-.2c.5.5,1,1.1,1.5,1.7-.1-.1-.2-.2-.2-.4l.9,2.2v-.2c-1.4-4.7-6.7-8-11.5-6.5s-7.9,6.4-6.5,11.4c1.7,5.9,7.8,8.9,13.6,7.4,3.4-.9,6-3.1,8.2-5.6,4.1-4.6,7.1-9.7,9.3-15.4.8-2.1,1.1-4.2.8-6.4-.5-3.6-2.4-6.4-5.4-8.5s-6.3-2.6-9.5-2.6c-6.6,0-12.5,3.4-16.3,8.7-4,5.5-3.7,12.9-.9,18.8,2.4,5.2,7.7,9.4,13.3,10.3s7.4.5,10.8-.9,6.5-3.2,9.2-5.8c4.3-4.3,7.1-10,9.1-15.6,5.1-14.2-9.8-25.3-21.7-28.7s-25.6.5-31.7,11.6c-3.3,6-3.7,13.2-1.7,19.7s5.2,11.1,9.2,15.9c3.2,3.9,7,7.3,10.8,10.6,4.5,3.9,9.4,8,15.4,9.1s13.5-.4,19-4.4c4.8-3.5,9.2-7.7,12.4-12.7,2-3.1,3.1-6.7,3.4-10.4.3-3.3-.7-6.6-1.9-9.6-2-4.9-4.2-9.7-7-14.2-5.9-9.5-14.3-17.4-25.1-20.7s-23.6-1.2-31.9,7.1-11.3,19.9-10.8,31.1c.3,6.3,1.5,12.6,2.8,18.7s1.4,5.7,3,8.1c2,3,4.7,5.3,8.1,6.8,5.6,2.4,11.4,4,17.4,4.9s11.6,1.3,17.4.8,11.4-1.7,16.5-4.5c5.6-3.1,9.4-8.1,11.6-14.1,1-2.7,1.4-5.7,1.7-8.6s.2-4.6,0-6.9c-.4-5.2-1-10.5-2-15.6s-3.4-11-7.1-15.6-9.2-7.7-14.9-9.5c-10.5-3.3-22.4-1.7-31.9,3.7s-16.4,14.9-18.9,25.4-1.3,11.2-.4,16.9,2.5,4.5,4.3,5.5,4.9,1.7,7.1.9,4.4-2.1,5.5-4.3l.9-2.2c.4-1.6.4-3.3,0-4.9h0Z" style="fill: #5f6f94;"/>
  </g>
  <g style="clip-path: url(#uuid-b3712941-9f2e-4130-8aa6-e6bade654fc5); fill: none;">
    <g>
      <g>
        <g>
          <path d="m382.8,121.5c-2.9-2.5-5.7-5.1-8.6-7.6s-2-.8-2.7,0c-.7.7-.8,2,0,2.7,2.9,2.5,5.7,5.1,8.6,7.6s2,.8,2.7,0,.8-2,0-2.7h0Z" style="fill: #fff;"/>
          <path d="m374.2,116c.4-.8.8-1.6,1.3-2.4s.5-.7.8-1.1.1-.2.2-.3.2-.3.1-.1,0-.1.1-.1c0-.1.2-.2.3-.3,1.3-1.6,2.5-3.2,3.8-4.8s.8-1.9,0-2.7-2-.8-2.7,0c-1.3,1.6-2.6,3.3-3.9,4.9s-2.5,3.2-3.3,5-.3.9-.2,1.5.5.9.9,1.1c.8.4,2.2.3,2.6-.7h0Z" style="fill: #fff;"/>
        </g>
        <g>
          <path d="m394.3,104.7c2.9,2.5,5.7,5.1,8.6,7.6.7.7,2,.8,2.7,0s.8-2,0-2.7c-2.9-2.5-5.7-5.1-8.6-7.6s-2-.8-2.7,0-.8,2,0,2.7h0Z" style="fill: #fff;"/>
          <path d="m402.8,110.2c-.4.8-.8,1.6-1.3,2.4s-.5.7-.8,1.1-.1.2-.2.3-.2.3-.1.1,0,.1-.1.1c0,.1-.2.2-.3.3-1.3,1.6-2.5,3.2-3.8,4.8s-.8,1.9,0,2.7,2,.8,2.7,0c1.3-1.6,2.6-3.3,3.9-4.9,1.2-1.6,2.5-3.2,3.3-5,.2-.5.3-.9.2-1.5s-.5-.9-.9-1.1c-.8-.4-2.2-.3-2.6.7h0Z" style="fill: #fff;"/>
        </g>
      </g>
      <g>
        <path d="m338.1,39.6c.9-3.5,2-6.9,3.1-10.3.6-1.7,1.2-3.4,1.8-5,.6-1.6,1.3-3.4,1.9-4.8s.3-2-.7-2.5-2.1-.3-2.5.7c-2.9,6.8-5.4,13.8-7.2,21-.2.9.3,2,1.3,2.2s2-.3,2.2-1.3h0Z" style="fill: #fff;"/>
        <path d="m329.3,36.5c.8-3,1.7-5.9,2.7-8.8.5-1.4,1-2.9,1.6-4.3.6-1.4,1.1-2.6,1.7-4,.4-.9.3-2-.7-2.5s-2.1-.3-2.5.7c-2.6,5.8-4.8,11.8-6.4,18s.3,2,1.3,2.2,2-.3,2.2-1.3h0Z" style="fill: #fff;"/>
        <path d="m343.9,30.5c-6.1-1.5-12.3-2.3-18.5-3.1s-2,.2-2.2,1.3.3,2.1,1.3,2.2c6.2.9,12.4,1.6,18.5,3.1s2-.3,2.2-1.3-.3-2-1.3-2.2h0Z" style="fill: #fff;"/>
        <path d="m344.5,23.4c-5.4-.8-10.7-1.6-16.1-2.4-.9-.1-2,.2-2.2,1.3s.3,2.1,1.3,2.2c5.4.8,10.7,1.6,16.1,2.4.9.1,2-.2,2.2-1.3.2-.9-.3-2.1-1.3-2.2h0Z" style="fill: #fff;"/>
      </g>
      <g>
        <path d="m500.6,109.8c1.6,0,3.3-.2,4.6-1.1s1.4-1.4,1.6-2.4-.1-2.2-.5-3.3-.6-1.8-.6-2.7,0-2,0-2.7.2-.8.4-1.1.3-.5.7-.8c-.2.1.3-.2.3-.2-.2.1.3,0,.4-.1.2,0,.2,0,0,0,0,0,.2,0,.3,0-.3,0,.2,0,.3.1l-.7-2.5c.2-.1-.1,0-.2.1-.2.1,0,0-.2,0s-.4,0-.2,0c0,0-.2,0-.2,0s-.4,0-.1,0c-.1,0-.3,0-.4-.1-.2,0,0,0-.2,0s-.3-.2-.2-.1c-.1-.1-.3-.2-.4-.4s0,0,0,0c0,0,0-.1-.1-.2,0-.1-.2-.3-.2-.4s0,0,0,0c0,0,0-.1,0-.2,0-.1,0-.4-.1-.4-.1-.8,0-1.7,0-2.5.2-2.9-1.1-6.4-4.3-7.1s-3.5.2-4.5,1.7c-.5.7-.1,1.7.5,2.1s1.6.1,2.1-.5c-.2.2,0,0,.1,0-.2.2,0,0,.1,0,.2-.1-.1,0,.1,0s.5-.1.3,0,.2,0,.3,0,.4,0,.3,0,.2,0,.3,0,.1,0,.2,0c-.1,0-.1,0,0,0s.2.1.3.2c-.2-.1,0,0,.1.1.1.1.2.2.3.3-.1-.2.1.2.2.3.2.3.2.4.3.6.1.3.2.7.2,1,0-.2,0,.2,0,.2,0,.2,0,.3,0,.5,0,.4,0,.8,0,1.2,0,.9,0,1.8,0,2.7.3,1.5,1.2,2.9,2.5,3.6s3.7.7,5.2-.6c.9-.8.3-2.2-.7-2.5-1.5-.5-3.2,0-4.4,1.1-1.3,1.1-1.7,2.8-1.9,4.4-.2,1.7,0,3.5.5,5.1s.6,1.5.7,2.3,0,.4-.1.6c0-.2,0,0,0,0,.1-.2,0,0-.1.1s0,0,0,0c0,0-.1,0-.2.1s-.4.2-.3.2,0,0,0,0c0,0-.2,0-.3,0-.2,0-.3,0-.5.1s-.3,0-.5,0c.3,0-.1,0-.2,0-.3,0-.7,0-1,0-.8,0-1.5.7-1.5,1.5s.7,1.5,1.5,1.5h0Z" style="fill: #fff;"/>
        <path d="m483.1,85.2c-1.6,0-3.3.2-4.6,1.1s-1.4,1.4-1.6,2.4c-.2,1.2.1,2.2.5,3.3s.6,1.8.6,2.7c0,.9,0,2,0,2.7s-.2.8-.4,1.1-.3.5-.7.8c.2-.1-.3.2-.3.2.2-.1-.3,0-.4.1-.2,0-.2,0,0,0,0,0-.2,0-.3,0,.3,0-.2,0-.3-.1l.7,2.5c-.2.1.1,0,.2-.1.2-.1,0,0,.2,0s.4,0,.2,0c0,0,.2,0,.2,0s.4,0,.1,0c.1,0,.3,0,.4.1.2,0,0,0,.2,0s.3.2.2.1c.1.1.3.2.4.4s0,0,0,0c0,0,0,.1.1.2,0,.1.2.3.2.4s0,0,0,0c0,0,0,.1,0,.2,0,.1,0,.4.1.4.1.8,0,1.7,0,2.5-.2,2.9,1.1,6.4,4.3,7.1s3.5-.2,4.5-1.7.1-1.7-.5-2.1-1.6-.1-2.1.5c.2-.2,0,0-.1,0,.2-.2,0,0-.1,0-.2.1.1,0-.1,0s-.5.1-.3,0-.2,0-.3,0-.4,0-.3,0-.2,0-.3,0-.1,0-.2,0c.1,0,.1,0,0,0s-.2-.1-.3-.2c.2.1,0,0-.1-.1-.1-.1-.2-.2-.3-.3.1.2-.1-.2-.2-.3-.2-.3-.2-.4-.3-.6-.1-.3-.2-.7-.2-1,0,.2,0-.2,0-.2,0-.2,0-.3,0-.5,0-.4,0-.8,0-1.2,0-.9,0-1.8,0-2.7-.3-1.5-1.2-2.9-2.5-3.6s-3.7-.7-5.2.6-.3,2.2.7,2.5c1.5.5,3.2,0,4.4-1.1s1.7-2.8,1.9-4.4c.2-1.7,0-3.5-.5-5.1s-.6-1.5-.7-2.3,0-.4.1-.6c0,.2,0,0,0,0-.1.2,0,0,.1-.1s0,0,0,0c0,0,.1,0,.2-.1s.4-.2.3-.2,0,0,0,0c0,0,.2,0,.3,0,.2,0,.3,0,.5-.1s.3,0,.5,0c-.3,0,.1,0,.2,0,.3,0,.7,0,1,0,.8,0,1.5-.7,1.5-1.5s-.7-1.5-1.5-1.5h0Z" style="fill: #fff;"/>
      </g>
      <g>
        <path d="m435.2,23c.1,0,.3.1.4.2l-.5-.4c.1.1.3.2.4.4l-.4-.5c0,.1.2.3.2.4l-.2-.6c0,.1,0,.3.1.4v-.6c0,.1,0,.2,0,.3v-.6c0,0,0,.2,0,.2l.2-.6c0,0,0,.2-.1.2l.4-.5c0,0-.2.2-.2.2l.5-.4c-.2.1-.3.2-.5.3l.6-.2c-.3.1-.7.3-1,.3h.6c-.1,0-.2,0-.4,0h.6c0,0-.1,0-.2,0l.6.2c0,0-.1,0-.2,0l.5.4s0,0-.1-.1l.4.5c0,0,0-.2-.1-.2l.2.6c-.1-.3-.2-.6-.2-.9v.6c0-.2,0-.4,0-.6v.6c0-.1,0-.3,0-.4l-.2.6c0-.1.1-.2.2-.3l-.4.5c0,0,.1-.1.2-.2l-.5.4c0,0,.2-.1.3-.2l-.6.2c.1,0,.2,0,.4,0h-.6c.1,0,.2,0,.4,0h-.6c.1,0,.2,0,.4,0l-.6-.2c.1,0,.2.1.3.2l-.5-.4c0,0,.2.2.3.3l-.4-.5c0,.1.1.2.2.3l-.2-.6c0,.1,0,.3.1.4v-.6c0,.1,0,.3,0,.4v-.6c0,.1,0,.3,0,.4l.2-.6c0,.2-.1.3-.2.4l.4-.5c0,.1-.2.2-.3.3l.5-.4c-.1.1-.3.2-.4.3l.6-.2c-.1,0-.3,0-.4.1h.6c0,0-.2,0-.2,0h.6c0,0-.2,0-.2,0l.6.2c0,0-.2,0-.2-.1l.5.4c0,0-.2-.2-.2-.2l.4.5c-.2-.2-.3-.4-.4-.6l.2.6c0-.2-.1-.4-.2-.6v.6c0-.1,0-.3,0-.4v.6c0-.1,0-.2,0-.3l-.2.6c0,0,0-.1.1-.2l-.4.5c0,0,.1-.1.2-.2l-.5.4c0,0,.1,0,.2-.1l-.6.2c0,0,.2,0,.2,0h-.6c0,0,.1,0,.2,0h-.6c0,0,.1,0,.2,0l-.6-.2s0,0,.1,0l-.5-.4h0c.2.3.5.4.7.5.3.1.6.2.9.2.6,0,1.2-.3,1.6-.7s.7-1,.7-1.6v-.6c-.2-.4-.4-.7-.7-1-.4-.3-.8-.6-1.3-.7s-1-.1-1.6,0-.8.3-1.1.6-.6.5-.9,1c-.5.9-.5,1.8-.3,2.8s.3.8.4,1.1.2.3.3.5c.5.7,1.2,1.4,2.1,1.6s1.9,0,2.8-.4,1.1-.9,1.5-1.5,0-.1.1-.2c.1-.2.2-.5.3-.7s.2-.7.1-1.1c0-.7-.2-1.4-.6-2s-.4-.6-.6-.8c-.5-.4-.8-.6-1.4-.8s-.7-.2-1-.2-.7,0-1.1.1-.7.2-.9.4c-.5.3-.8.6-1.1,1.1s-.3.6-.4,1-.2.8-.2,1.1,0,.7.1,1.1,0,.4.1.6c.1.3.2.7.4,1,.3.5.5.6.9.9s0,0,.1,0c.2.1.4.2.6.3s.5.1.8.1.2,0,.3,0c.4,0,.8,0,1.1-.2.5-.2,1.1-.3,1.5-.6.8-.5,1.4-1.2,1.6-2.1s0-2.1-.5-2.9-1-1.2-1.7-1.6c-.3-.2-.6-.3-.9-.3-.3,0-.6,0-.9,0-.5.1-1.1.6-1.4,1.1s-.4,1.2-.2,1.8.5,1.1,1.1,1.4h0Z" style="fill: #fff;"/>
        <path d="m435.2,39.5c.1,0,.3.1.4.2l-.5-.4c.1.1.3.2.4.4l-.4-.5c0,.1.2.3.2.4l-.2-.6c0,.1,0,.3.1.4v-.6c0,.1,0,.2,0,.3v-.6c0,0,0,.2,0,.2l.2-.6c0,0,0,.2-.1.2l.4-.5c0,0-.2.2-.2.2l.5-.4c-.2.1-.3.2-.5.3l.6-.2c-.3.1-.7.3-1,.3h.6c-.1,0-.2,0-.4,0h.6c0,0-.1,0-.2,0l.6.2c0,0-.1,0-.2,0l.5.4s0,0-.1-.1l.4.5c0,0,0-.2-.1-.2l.2.6c-.1-.3-.2-.6-.2-.9v.6c0-.2,0-.4,0-.6v.6c0-.1,0-.3,0-.4l-.2.6c0-.1.1-.2.2-.3l-.4.5c0,0,.1-.1.2-.2l-.5.4c0,0,.2-.1.3-.2l-.6.2c.1,0,.2,0,.4,0h-.6c.1,0,.2,0,.4,0h-.6c.1,0,.2,0,.4,0l-.6-.2c.1,0,.2.1.3.2l-.5-.4c0,0,.2.2.3.3l-.4-.5c0,.1.1.2.2.3l-.2-.6c0,.1,0,.3.1.4v-.6c0,.1,0,.3,0,.4v-.6c0,.1,0,.3,0,.4l.2-.6c0,.2-.1.3-.2.4l.4-.5c0,.1-.2.2-.3.3l.5-.4c-.1.1-.3.2-.4.3l.6-.2c-.1,0-.3,0-.4.1h.6c0,0-.2,0-.2,0h.6c0,0-.2,0-.2,0l.6.2c0,0-.2,0-.2-.1l.5.4c0,0-.2-.2-.2-.2l.4.5c-.2-.2-.3-.4-.4-.6l.2.6c0-.2-.1-.4-.2-.6v.6c0-.1,0-.3,0-.4v.6c0-.1,0-.2,0-.3l-.2.6c0,0,0-.1.1-.2l-.4.5c0,0,.1-.1.2-.2l-.5.4c0,0,.1,0,.2-.1l-.6.2c0,0,.2,0,.2,0h-.6c0,0,.1,0,.2,0h-.6c0,0,.1,0,.2,0l-.6-.2s0,0,.1,0l-.5-.4h0c.2.3.5.4.7.5.3.1.6.2.9.2.6,0,1.2-.3,1.6-.7s.7-1,.7-1.6v-.6c-.2-.4-.4-.7-.7-1-.4-.3-.8-.6-1.3-.7s-1-.1-1.6,0-.8.3-1.1.6-.6.5-.9,1c-.5.9-.5,1.8-.3,2.8s.3.8.4,1.1.2.3.3.5c.5.7,1.2,1.4,2.1,1.6s1.9,0,2.8-.4,1.1-.9,1.5-1.5,0-.1.1-.2c.1-.2.2-.5.3-.7s.2-.7.1-1.1c0-.7-.2-1.4-.6-2s-.4-.6-.6-.8c-.5-.4-.8-.6-1.4-.8s-.7-.2-1-.2-.7,0-1.1.1-.7.2-.9.4c-.5.3-.8.6-1.1,1.1s-.3.6-.4,1-.2.8-.2,1.1,0,.7.1,1.1,0,.4.1.6c.1.3.2.7.4,1,.3.5.5.6.9.9s0,0,.1,0c.2.1.4.2.6.3s.5.1.8.1.2,0,.3,0c.4,0,.8,0,1.1-.2.5-.2,1.1-.3,1.5-.6.8-.5,1.4-1.2,1.6-2.1s0-2.1-.5-2.9-1-1.2-1.7-1.6c-.3-.2-.6-.3-.9-.3-.3,0-.6,0-.9,0-.5.1-1.1.6-1.4,1.1s-.4,1.2-.2,1.8.5,1.1,1.1,1.4h0Z" style="fill: #fff;"/>
      </g>
    </g>
  </g>
</svg>