<?xml version="1.0" encoding="UTF-8"?>
<svg id="Capa_1" data-name="Capa 1" xmlns="http://www.w3.org/2000/svg" viewBox="0 0 498.24 498.24">
  <defs>
    <style>
      .cls-1 {
        fill: #5f6f94;
      }
    </style>
  </defs>
  <g>
    <path class="cls-1" d="m22.59,272.75c18,.92,36.05.51,53.99-1.24,5.64-.55,11.26-1.26,16.87-2.03,1.93-.27,4.09-2.27,5.02-3.86,1.05-1.8,1.5-4.46.85-6.48s-1.92-4-3.86-5.02l-2.01-.85c-1.49-.4-2.98-.4-4.47,0-.49.07-.97.13-1.46.2l2.23-.3c-17.29,2.32-34.74,3.41-52.19,3.23-5-.05-9.99-.21-14.98-.46-4.4-.22-8.6,4.03-8.41,8.41.21,4.75,3.69,8.17,8.41,8.41h0Z"/>
    <path class="cls-1" d="m32.97,310.57c17.36-1.3,34.72-2.6,52.09-3.9,4.96-.37,9.92-.74,14.88-1.11,2.25-.17,4.31-.82,5.94-2.46,1.46-1.46,2.56-3.85,2.46-5.94-.19-4.27-3.71-8.76-8.41-8.41-17.36,1.3-34.72,2.6-52.09,3.9l-14.88,1.11c-2.25.17-4.31.82-5.94,2.46-1.46,1.46-2.56,3.85-2.46,5.94.19,4.27,3.71,8.76,8.41,8.41h0Z"/>
  </g>
  <g>
    <path class="cls-1" d="m475.66,255.93c-17.42.89-34.9.54-52.27-1.08-4.97-.46-9.94-1.03-14.89-1.69l2.23.3c-.49-.07-.97-.13-1.46-.2-2.34-.32-4.35-.4-6.48.85-1.74,1.02-3.41,3.02-3.86,5.02-.49,2.15-.38,4.57.85,6.48,1.1,1.7,2.92,3.57,5.02,3.86,18.45,2.55,37.01,3.91,55.63,3.74,5.08-.05,10.15-.21,15.22-.46,4.38-.22,8.62-3.71,8.41-8.41-.2-4.36-3.7-8.64-8.41-8.41h0Z"/>
    <path class="cls-1" d="m465.27,293.76c-17.36-1.3-34.72-2.6-52.09-3.9-4.96-.37-9.92-.74-14.88-1.11-2.05-.15-4.53,1.05-5.94,2.46s-2.56,3.85-2.46,5.94c.22,4.84,3.7,8.05,8.41,8.41,17.36,1.3,34.72,2.6,52.09,3.9,4.96.37,9.92.74,14.88,1.11,2.05.15,4.53-1.05,5.94-2.46s2.56-3.85,2.46-5.94c-.22-4.84-3.7-8.05-8.41-8.41h0Z"/>
  </g>
  <path class="cls-1" d="m161.8,237.3c-1.55-.37-3.05-.85-4.51-1.47l2.01.85c-2.25-.97-4.34-2.21-6.29-3.69l1.7,1.31c-1.93-1.51-3.65-3.23-5.17-5.15l1.31,1.7c-1.49-1.94-2.73-4.03-3.69-6.28l.85,2.01c-.88-2.14-1.48-4.35-1.82-6.64l.3,2.23c-.35-2.59-.35-5.19-.02-7.79l-.3,2.23c.36-2.59,1.05-5.1,2.06-7.52l-.85,2.01c.94-2.16,2.11-4.18,3.54-6.05l-1.31,1.7c1.24-1.58,2.62-3,4.19-4.25l-1.7,1.31c1.17-.89,2.41-1.64,3.75-2.24l-2.01.85c1.48-.62,3-1.02,4.58-1.24l-2.23.3c2.2-.26,4.38-.19,6.57.09l-2.23-.3c3.3.46,6.51,1.31,9.71,2.2,2.64.74,5.26,1.55,7.79,2.61l-2.01-.85c1.97.85,3.85,1.86,5.58,3.14l-1.7-1.31c1.1.86,2.1,1.81,2.97,2.89l-1.31-1.7c.76.99,1.39,2.04,1.9,3.18l-.85-2.01c.53,1.28.87,2.59,1.08,3.95l-.3-2.23c.24,1.95.19,3.89-.06,5.83l.3-2.23c-.52,3.53-1.65,6.9-3.02,10.19l.85-2.01c-2.17,5.12-4.98,9.92-8.37,14.33l1.31-1.7c-1.62,2.08-3.32,4.22-5.37,5.88l1.7-1.31c-.66.5-1.33.91-2.09,1.23l2.01-.85c-.56.2-1.11.34-1.7.43l2.23-.3c-1.07.11-2.11.06-3.18-.08l2.23.3c-6.3-.91-12.74-2.32-18.62-4.78l2.01.85c-2.65-1.14-5.16-2.53-7.47-4.28l1.7,1.31c-1.81-1.41-3.44-2.99-4.86-4.79l1.31,1.7c-1.23-1.59-2.25-3.29-3.04-5.14l.85,2.01c-.61-1.51-1.04-3.06-1.28-4.67l.3,2.23c-.2-1.61-.2-3.21,0-4.82l-.3,2.23c.26-1.85.77-3.62,1.49-5.34l-.85,2.01c.86-1.97,1.96-3.79,3.27-5.49l-1.31,1.7c1.43-1.8,3.05-3.4,4.87-4.81l-1.7,1.31c2.07-1.57,4.33-2.81,6.71-3.84l-2.01.85c3.59-1.49,7.36-2.4,11.2-2.95l-2.23.3c4.51-.6,9.38-1.04,13.9-.45l-2.23-.3c.87.14,1.7.35,2.52.68l-2.01-.85c.68.31,1.3.68,1.9,1.13l-1.7-1.31c.78.62,1.45,1.33,2.08,2.1l-1.31-1.7c1.49,1.96,2.56,4.18,3.52,6.42l-.85-2.01c1.02,2.44,1.84,4.94,2.21,7.56l-.3-2.23c.16,1.33.19,2.65.05,3.98l.3-2.23c-.14,1.05-.39,2.05-.77,3.04l.85-2.01c-.42.98-.93,1.86-1.58,2.7l1.31-1.7c-.73.9-1.56,1.68-2.47,2.4l1.7-1.31c-3.97,3.03-8.88,5.12-13.46,7.06l2.01-.85c-3.88,1.61-7.87,2.9-12.03,3.49l2.23-.3c-2.22.29-4.45.34-6.68.06l2.23.3c-1.55-.23-3.03-.61-4.47-1.22l2.01.85c-.94-.43-1.82-.93-2.65-1.54l1.7,1.31c-.86-.67-1.62-1.42-2.29-2.27l1.31,1.7c-.7-.94-1.27-1.94-1.73-3.03l.85,2.01c-.48-1.22-.8-2.46-.98-3.75l.3,2.23c-.17-1.43-.17-2.85,0-4.28l-.3,2.23c.21-1.45.58-2.84,1.13-4.2l-.85,2.01c.7-1.66,1.61-3.19,2.69-4.63l-1.31,1.7c1.43-1.84,3.1-3.46,4.94-4.89l-1.7,1.31c1.71-1.3,3.53-2.47,5.5-3.36l-2.01.85c1.06-.44,2.12-.78,3.26-.97l-2.23.3c.69-.08,1.35-.1,2.04-.04l-2.23-.3c.69.1,1.32.27,1.97.55l-2.01-.85c.48.24.92.51,1.35.83l-1.7-1.31c2.04,1.6,3.84,3.64,5.43,5.68l-1.31-1.7c1.1,1.45,2.06,2.97,2.8,4.64l-.85-2.01c.5,1.21.86,2.44,1.05,3.74l-.3-2.23c.14,1.14.16,2.27.02,3.42l.3-2.23c-.15,1-.4,1.95-.79,2.88l.85-2.01c-.32.69-.7,1.32-1.15,1.93l1.31-1.7c-.41.5-.85.94-1.36,1.35l1.7-1.31c-.6.45-1.23.82-1.91,1.13l2.01-.85c-.8.33-1.61.55-2.46.69l2.23-.3c-.86.11-1.7.12-2.56.03l2.23.3c-.85-.12-1.66-.32-2.46-.64l2.01.85c-.69-.3-1.31-.67-1.92-1.12l1.7,1.31c-.51-.42-.95-.87-1.36-1.39l1.31,1.7c-.39-.53-.71-1.08-.99-1.68l.85,2.01c-.34-.81-.57-1.64-.71-2.51l.3,2.23c-.11-.88-.11-1.74-.01-2.62l-.3,2.23c.13-.87.35-1.7.68-2.52l-.85,2.01c.31-.7.69-1.34,1.16-1.95l-1.31,1.7c.37-.45.76-.84,1.21-1.21l-1.7,1.31c.21-.17.44-.31.69-.43l-2.01.85c.24-.11.5-.18.77-.19l-2.23.3.4.03-2.23-.3.38.11-2.01-.85c.25.1.49.24.71.4l-1.7-1.31c1.82,1.41,3.38,3.2,4.78,5.01l-1.31-1.7c1.64,2.18,3.01,4.52,4.09,7.03l-.85-2.01c.27.64.54,1.26.67,1.95l-.3-2.23c.05.39.06.76.03,1.16l.3-2.23c-.04.28-.09.52-.17.79l.85-2.01c-.05.15-.13.3-.22.43l1.31-1.7c-.08.12-.18.23-.3.32l1.7-1.31-.18.11,2.01-.85-.2.07,2.23-.3c-.16.03-.32.03-.48,0-2.01-.21-4.57,1.09-5.94,2.46-1.46,1.46-2.56,3.85-2.46,5.94s.81,4.43,2.46,5.94c1.74,1.6,3.61,2.21,5.94,2.46,2.46.26,5.26-1.06,6.97-2.77,1.33-1.34,2.38-3.24,2.69-5.1.34-2.06.45-3.99-.12-6.04-.45-1.6-1.22-3.15-1.93-4.65-2.04-4.35-5.09-8.41-8.6-11.68-1.62-1.51-3.37-2.82-5.51-3.5-2.8-.89-6.09-.39-8.55,1.19-3.12,2-5.06,4.93-6.39,8.31-1.93,4.86-1.23,11.19,1.69,15.53,3.29,4.89,8.98,7.99,14.95,7.63s11.7-3.27,14.61-8.66c2.81-5.2,3.14-11.71.89-17.18-2.11-5.14-5.48-9.69-9.63-13.39-3.05-2.73-6.49-4.38-10.64-4.51-3.41-.1-6.71,1.08-9.72,2.56-4.18,2.07-8.2,5.25-11.12,8.9-1.67,2.09-3.18,4.17-4.24,6.64-1.3,3.02-2.02,5.69-2.34,8.98-.46,4.75.8,10.24,3.5,14.2,3.29,4.82,8.27,8.29,14.08,9.33s11.07.57,16.53-.86c5.12-1.34,10.02-3.54,14.76-5.86,4.29-2.1,8.88-4.34,12.05-8.03,2.13-2.48,3.85-5.35,4.56-8.59s.62-6.42.11-9.82c-.33-2.2-.97-4.33-1.79-6.4-.97-2.44-1.99-4.9-3.3-7.18s-2.87-4.39-4.86-6.02c-1.86-1.52-3.37-2.42-5.61-3.29-1.67-.64-3.42-.85-5.19-1.04-4.8-.51-9.82.02-14.59.66-9.99,1.34-20.17,5.16-26.89,13.02s-10.38,18.67-6.64,28.7c1.83,4.91,4.68,9.33,8.59,12.86,4.15,3.75,8.79,6.28,13.96,8.33,4.44,1.76,9.12,2.81,13.8,3.7,2.86.54,5.84,1.28,8.76,1.09,4.23-.28,7.67-1.91,10.81-4.7,1.67-1.48,3.1-3.28,4.48-5.02,1.72-2.18,3.4-4.4,4.9-6.74,2.77-4.33,4.96-9,6.77-13.81s2.98-9.85,2.64-14.84c-.41-5.98-2.59-11.62-6.96-15.84-3.62-3.5-8.06-5.67-12.73-7.4-3.91-1.45-8.02-2.57-12.1-3.45-5.72-1.23-11.86-1.84-17.54-.07-5.17,1.61-9.78,4.86-13.14,9.1s-5.86,8.78-7.2,13.98-1.46,10.68-.6,16.09c1.52,9.59,7.61,17.82,15.37,23.37,3.53,2.52,7.71,4.36,11.93,5.35,4.27,1.01,9.31-1.33,10.34-5.87s-1.29-9.26-5.87-10.34h0Z"/>
  <path class="cls-1" d="m321.48,225.6c-.04-.25-.08-.5-.12-.75l.3,2.23c-.33-2.52-.31-5.05.02-7.58l-.3,2.23c.37-2.52,1.05-4.96,2.03-7.31l-.85,2.01c.96-2.22,2.16-4.3,3.62-6.23l-1.31,1.7c1.41-1.82,3.01-3.44,4.81-4.87l-1.7,1.31c1.94-1.49,4.05-2.71,6.3-3.67l-2.01.85c2.39-.98,4.87-1.65,7.42-2.01l-2.23.3c2.56-.32,5.12-.33,7.68.01l-2.23-.3c2.23.33,4.4.91,6.49,1.76l-2.01-.85c1.67.72,3.23,1.59,4.67,2.7l-1.7-1.31c1.04.84,1.96,1.77,2.8,2.82l-1.31-1.7c.99,1.31,1.79,2.73,2.45,4.23l-.85-2.01c1.46,3.47,2.14,7.18,2.64,10.9l-.3-2.23c.64,4.81,1.27,9.7.68,14.55l.3-2.23c-.24,1.77-.65,3.49-1.33,5.15l.85-2.01c-.51,1.17-1.13,2.26-1.9,3.28l1.31-1.7c-.77.97-1.62,1.82-2.59,2.59l1.7-1.31c-1.17.88-2.43,1.59-3.77,2.18l2.01-.85c-2.31.97-4.74,1.54-7.22,1.87l2.23-.3c-4.95.62-10,.43-14.93-.23l2.23.3c-4.81-.68-9.64-1.81-14.14-3.65l2.01.85c-.95-.41-1.84-.87-2.67-1.48l1.7,1.31c-.51-.41-.95-.84-1.36-1.35l1.31,1.7c-.39-.54-.7-1.1-.98-1.71l.85,2.01c-.82-1.99-1.18-4.14-1.61-6.23-.49-2.39-.92-4.79-1.25-7.21l.3,2.23c-.54-4.14-.72-8.32-.16-12.47l-.3,2.23c.37-2.52,1.03-4.97,2-7.32l-.85,2.01c.85-1.97,1.9-3.83,3.2-5.53l-1.31,1.7c1.08-1.37,2.3-2.6,3.68-3.67l-1.7,1.31c1.22-.91,2.51-1.66,3.91-2.26l-2.01.85c1.52-.62,3.07-1.04,4.69-1.28l-2.23.3c2.01-.27,4.02-.25,6.04,0l-2.23-.3c2.3.32,4.52.94,6.67,1.82l-2.01-.85c2.27.97,4.37,2.21,6.33,3.72l-1.7-1.31c2.43,1.93,4.56,4.16,6.46,6.61l-1.31-1.7c3.21,4.23,5.65,8.95,7.72,13.82l-.85-2.01c.73,1.74,1.43,3.48,1.72,5.35l-.3-2.23c.09.84.09,1.65-.02,2.5l.3-2.23c-.14.79-.36,1.53-.65,2.27l.85-2.01c-.6,1.37-1.4,2.61-2.31,3.79l1.31-1.7c-1.94,2.44-4.16,4.69-6.63,6.6l1.7-1.31c-1.39,1.05-2.85,1.96-4.45,2.65l2.01-.85c-1.08.44-2.18.76-3.33.94l2.23-.3c-1.04.13-2.06.13-3.1,0l2.23.3c-1.09-.18-2.13-.49-3.15-.92l2.01.85c-1.53-.69-2.91-1.6-4.25-2.61l1.7,1.31c-5.04-3.91-9.93-8.39-13.86-13.43l1.31,1.7c-1.74-2.27-3.28-4.69-4.42-7.32l.85,2.01c-.71-1.71-1.24-3.47-1.51-5.3l.3,2.23c-.17-1.39-.18-2.76,0-4.15l-.3,2.23c.18-1.05.45-2.06.86-3.04l-.85,2.01c.44-.98.99-1.89,1.65-2.74l-1.31,1.7c.76-.93,1.61-1.75,2.56-2.49l-1.7,1.31c1.08-.8,2.23-1.45,3.46-1.98l-2.01.85c1.36-.55,2.76-.94,4.21-1.15l-2.23.3c1.63-.2,3.24-.17,4.87.04l-2.23-.3c2.11.31,4.12.9,6.08,1.73l-2.01-.85c2.34,1.03,4.52,2.34,6.55,3.89l-1.7-1.31c1.15.91,2.2,1.89,3.1,3.05l-1.31-1.7c.46.63.85,1.27,1.18,1.98l-.85-2.01c.24.59.41,1.17.52,1.8l-.3-2.23c.06.54.06,1.04.02,1.58l.3-2.23c-.19,1.32-.67,2.54-1.18,3.77l.85-2.01c-1.1,2.58-2.35,5.09-4.06,7.33l1.31-1.7c-.86,1.08-1.79,2.06-2.87,2.92l1.7-1.31c-.95.72-1.96,1.32-3.05,1.81l2.01-.85c-.97.4-1.96.68-3,.84l2.23-.3c-.91.11-1.78.11-2.69,0l2.23.3c-.71-.12-1.38-.29-2.05-.56l2.01.85c-.69-.31-1.31-.68-1.91-1.13l1.7,1.31c-.58-.48-1.1-1-1.57-1.58l1.31,1.7c-.52-.69-.95-1.42-1.3-2.21l.85,2.01c-.33-.8-.55-1.61-.69-2.46l.3,2.23c-.09-.75-.1-1.47-.03-2.22l-.3,2.23c.1-.75.29-1.45.57-2.16l-.85,2.01c.27-.59.58-1.13.96-1.65l-1.31,1.7c.53-.68,1.12-1.26,1.8-1.79l-1.7,1.31c.61-.44,1.25-.81,1.94-1.13l-2.01.85c.9-.38,1.81-.63,2.77-.76l-2.23.3c.75-.08,1.48-.08,2.22,0l-2.23-.3c.75.11,1.45.3,2.15.58l-2.01-.85c.41.19.79.39,1.16.66l-1.7-1.31c.17.14.33.3.45.48l-1.31-1.7.16.29-.85-2.01.12.38-.3-2.23c.05.27.05.53.02.8l.3-2.23c-.2,1.09-.65,2.13-1.08,3.15l.85-2.01c-1.12,2.57-2.53,4.97-4.24,7.19l1.31-1.7c-1.09,1.38-2.25,2.74-3.58,3.89l1.7-1.31c-.31.23-.63.42-.98.6l2.01-.85c-.36.15-.7.25-1.08.32l2.23-.3c-.17.02-.34.03-.51.02l2.23.3c-.15,0-.3-.04-.45-.09l2.01.85c-.13-.05-.25-.12-.36-.22l1.7,1.31-.14-.16,1.31,1.7-.11-.2.85,2.01-.07-.24c-1.24-4.22-5.97-7.28-10.34-5.87s-7.2,5.82-5.87,10.34c1.57,5.37,6.93,8.04,12.23,6.73,2.97-.74,5.3-2.65,7.32-4.84,3.84-4.17,6.61-8.87,8.63-14.14.61-1.59,1.01-3.3.89-5.02-.26-3.61-1.98-6.36-4.9-8.41-2.38-1.67-5.63-2.41-8.5-2.47-5.62-.12-11,2.66-14.39,7.05s-4.4,10.61-2.32,15.82,6.49,10.21,12.51,11.31c6.67,1.22,13.07-.99,18.02-5.55,4.14-3.81,6.59-9.06,8.61-14.2,5.07-12.9-8.21-23.02-19.06-26.35s-23.29.2-29.1,10.14c-3.06,5.25-3.45,11.64-1.85,17.43s4.74,10.41,8.38,14.86c2.87,3.52,6.22,6.61,9.64,9.58,4.12,3.58,8.58,7.38,14.11,8.46,5.95,1.17,11.99-.29,16.94-3.77,4.44-3.12,8.41-7.02,11.43-11.54,3.56-5.34,4.06-11.79,1.71-17.7-1.81-4.53-3.8-9.03-6.37-13.19-5.36-8.67-12.89-15.84-22.73-19s-21.49-1.24-29.14,6.27-10.27,18.12-9.81,28.27c.26,5.69,1.32,11.35,2.52,16.91.57,2.62,1.36,5.36,2.93,7.57,2.11,2.94,4.75,4.87,8.05,6.27,4.69,1.98,9.65,3.27,14.68,4.01,5.34.78,10.74,1.25,16.13.76,5.11-.47,10.06-1.49,14.6-3.98,5.2-2.85,8.73-7.49,10.76-12.97,1.62-4.37,1.78-9.38,1.46-13.99s-.91-9.48-1.85-14.1-2.83-9.45-5.84-13.35c-3.59-4.65-8.6-7.67-14.18-9.38-9.48-2.9-20.26-1.44-28.82,3.46-8.49,4.86-14.78,13.45-17.03,22.96-1.22,5.19-1.24,10.19-.4,15.41.31,1.95,2.23,4.07,3.86,5.02,1.8,1.05,4.46,1.5,6.48.85s4-1.92,5.02-3.86c1.12-2.12,1.23-4.12.85-6.48h0Z"/>
  <g>
    <path class="cls-1" d="m237.97,275.63c10.49,0,20.97,0,31.46,0,3.16,0,6.19-2.78,6.04-6.04s-2.65-6.04-6.04-6.04c-10.49,0-20.97,0-31.46,0-3.16,0-6.19,2.78-6.04,6.04s2.65,6.04,6.04,6.04h0Z"/>
    <path class="cls-1" d="m250.44,272.68c0,8.23,0,16.45,0,24.68,0,3.16,2.78,6.19,6.04,6.04s6.04-2.65,6.04-6.04c0-8.23,0-16.45,0-24.68,0-3.16-2.78-6.19-6.04-6.04s-6.04,2.65-6.04,6.04h0Z"/>
    <path class="cls-1" d="m232.42,309.35c14.19.21,28.38.42,42.57.64,3.16.05,6.19-2.81,6.04-6.04s-2.65-5.99-6.04-6.04c-14.19-.21-28.38-.42-42.57-.64-3.16-.05-6.19,2.81-6.04,6.04s2.65,5.99,6.04,6.04h0Z"/>
  </g>
</svg>