<?xml version="1.0" encoding="UTF-8"?>
<svg id="Capa_1" data-name="Capa 1" xmlns="http://www.w3.org/2000/svg" viewBox="0 0 498.24 498.24">
  <defs>
    <style>
      .cls-1 {
        fill: #5f6f94;
      }
    </style>
  </defs>
  <g>
    <path class="cls-1" d="m22.59,272.75c18,.92,36.05.51,53.99-1.24,5.64-.55,11.26-1.26,16.87-2.03,1.93-.27,4.09-2.27,5.02-3.86,1.05-1.8,1.5-4.46.85-6.48s-1.92-4-3.86-5.02l-2.01-.85c-1.49-.4-2.98-.4-4.47,0-.49.07-.97.13-1.46.2l2.23-.3c-17.29,2.32-34.74,3.41-52.19,3.23-5-.05-9.99-.21-14.98-.46-4.4-.22-8.6,4.03-8.41,8.41.21,4.75,3.69,8.17,8.41,8.41h0Z"/>
    <path class="cls-1" d="m32.97,310.57c17.36-1.3,34.72-2.6,52.09-3.9,4.96-.37,9.92-.74,14.88-1.11,2.25-.17,4.31-.82,5.94-2.46,1.46-1.46,2.56-3.85,2.46-5.94-.19-4.27-3.71-8.76-8.41-8.41-17.36,1.3-34.72,2.6-52.09,3.9l-14.88,1.11c-2.25.17-4.31.82-5.94,2.46-1.46,1.46-2.56,3.85-2.46,5.94.19,4.27,3.71,8.76,8.41,8.41h0Z"/>
  </g>
  <g>
    <path class="cls-1" d="m475.66,255.93c-17.42.89-34.9.54-52.27-1.08-4.97-.46-9.94-1.03-14.89-1.69l2.23.3c-.49-.07-.97-.13-1.46-.2-2.34-.32-4.35-.4-6.48.85-1.74,1.02-3.41,3.02-3.86,5.02-.49,2.15-.38,4.57.85,6.48,1.1,1.7,2.92,3.57,5.02,3.86,18.45,2.55,37.01,3.91,55.63,3.74,5.08-.05,10.15-.21,15.22-.46,4.38-.22,8.62-3.71,8.41-8.41-.2-4.36-3.7-8.64-8.41-8.41h0Z"/>
    <path class="cls-1" d="m465.27,293.76c-17.36-1.3-34.72-2.6-52.09-3.9-4.96-.37-9.92-.74-14.88-1.11-2.05-.15-4.53,1.05-5.94,2.46s-2.56,3.85-2.46,5.94c.22,4.84,3.7,8.05,8.41,8.41,17.36,1.3,34.72,2.6,52.09,3.9l14.88,1.11c2.05.15,4.53-1.05,5.94-2.46s2.56-3.85,2.46-5.94c-.22-4.84-3.7-8.05-8.41-8.41h0Z"/>
  </g>
  <path class="cls-1" d="m314.51,243.68c11.01-14.59,22.09-29.12,33.24-43.6l-1.31,1.7c.3-.38.61-.73.97-1.05l-1.7,1.31c.18-.15.37-.26.59-.35l-2.01.85.32-.1-2.23.3c.23-.04.45-.04.68.01l-2.23-.3.32.11-2.01-.85c.21.1.41.22.58.37l-1.7-1.31c2.22,1.95,4.1,4.51,6,6.77,2,2.39,3.96,4.82,5.87,7.28l-1.31-1.7c6.41,8.31,12.27,17.03,17.53,26.11,2.2,3.81,7.69,5.47,11.5,3.02s5.37-7.43,3.02-11.5c-7.45-12.86-16.12-25-25.75-36.31-3.25-3.82-6.57-8.52-12.15-8.54-6.28-.02-9.42,5.63-12.79,10-4.72,6.13-9.42,12.28-14.11,18.43-5.29,6.94-10.56,13.89-15.82,20.86-1.23,1.62-1.36,4.61-.85,6.48s2.04,4.06,3.86,5.02c1.95,1.03,4.31,1.55,6.48.85s3.63-2.02,5.02-3.86h0Z"/>
  <path class="cls-1" d="m209.69,235.19c-9.32-12.35-18.69-24.67-28.12-36.94-1.1-1.44-2.21-2.87-3.31-4.31-1.82-2.37-3.43-5.06-6.08-6.62-3.31-1.94-7.48-1.86-10.69.24-1.94,1.27-3.38,3.07-4.88,4.8-5.06,5.81-9.85,11.88-14.38,18.12-4.73,6.53-9.12,13.3-13.16,20.27-2.21,3.81-1.01,9.37,3.02,11.5s9.15,1.05,11.5-3.02c5.26-9.08,11.12-17.8,17.53-26.11l-1.31,1.7c1.91-2.46,3.86-4.89,5.87-7.28s3.77-4.82,6-6.77l-1.7,1.31c.18-.15.37-.27.58-.37l-2.01.85.32-.11-2.23.3c.23-.05.45-.06.68-.01l-2.23-.3.32.1-2.01-.85c.21.09.41.21.59.35l-1.7-1.31c.36.32.67.67.97,1.05l-1.31-1.7c11.15,14.48,22.23,29.01,33.24,43.6,1.37,1.82,2.74,3.23,5.02,3.86,2.01.55,4.69.3,6.48-.85s3.37-2.88,3.86-5.02.48-4.71-.85-6.48h0Z"/>
  <g>
    <path class="cls-1" d="m237.97,275.63c10.49,0,20.97,0,31.46,0,3.16,0,6.19-2.78,6.04-6.04s-2.65-6.04-6.04-6.04c-10.49,0-20.97,0-31.46,0-3.16,0-6.19,2.78-6.04,6.04s2.65,6.04,6.04,6.04h0Z"/>
    <path class="cls-1" d="m250.44,272.68c0,8.23,0,16.45,0,24.68,0,3.16,2.78,6.19,6.04,6.04s6.04-2.65,6.04-6.04c0-8.23,0-16.45,0-24.68,0-3.16-2.78-6.19-6.04-6.04s-6.04,2.65-6.04,6.04h0Z"/>
    <path class="cls-1" d="m232.42,309.35c14.19.21,28.38.42,42.57.64,3.16.05,6.19-2.81,6.04-6.04s-2.65-5.99-6.04-6.04c-14.19-.21-28.38-.42-42.57-.64-3.16-.05-6.19,2.81-6.04,6.04s2.65,5.99,6.04,6.04h0Z"/>
  </g>
</svg>